<svg xmlns="http://www.w3.org/2000/svg" xmlns:xlink="http://www.w3.org/1999/xlink" width="131" height="126" viewBox="0 0 131 126">
  <defs>
    <clipPath id="clip-path">
      <rect id="Rect치ngulo_46714" data-name="Rect치ngulo 46714" width="69.682" height="69.677" fill="none"/>
    </clipPath>
  </defs>
  <g id="Grupo_160958" data-name="Grupo 160958" transform="translate(-398 -4993)">
    <rect id="Rect치ngulo_47055" data-name="Rect치ngulo 47055" width="131" height="126" transform="translate(398 4993)" fill="#f2fbe6"/>
    <g id="Grupo_160955" data-name="Grupo 160955" transform="translate(-335 20)">
      <ellipse id="Elipse_1146" data-name="Elipse 1146" cx="50.5" cy="51" rx="50.5" ry="51" transform="translate(748 4985)" fill="#f2fbe6"/>
      <g id="Grupo_160694" data-name="Grupo 160694" transform="translate(764 5001)">
        <g id="Grupo_160694-2" data-name="Grupo 160694" clip-path="url(#clip-path)">
          <path id="Trazado_601013" data-name="Trazado 601013" d="M124.2,27.656a19.8,19.8,0,1,0-19.8,19.8,19.8,19.8,0,0,0,19.8-19.8" transform="translate(-69.222 -6.426)" fill="#ade65f"/>
          <path id="Trazado_601014" data-name="Trazado 601014" d="M121.206,129.656s-6.732,1.261-7.282,4,0,8.861,0,8.861L126.633,148l8.313-1.649,7.617-5.4s.473-7.8-1.2-8.55-7.652-2.742-7.652-2.742Z" transform="translate(-93.017 -106.089)" fill="#4462fe"/>
          <path id="Trazado_601015" data-name="Trazado 601015" d="M174.74,130.481l8.079-.824-2.673,6.147,1.738,11.318H174.74L175.5,135.8Z" transform="translate(-142.979 -106.09)" fill="#fff"/>
          <path id="Trazado_601016" data-name="Trazado 601016" d="M159.45,50.006s3-1.717,4.8-1.237,4.479,1.246,4.96,2.512,1.511,3.6,1.1,3.6-13.327.343-13.327.343l.618-3.271Z" transform="translate(-128.445 -39.836)" fill="#ece975"/>
          <path id="Trazado_601017" data-name="Trazado 601017" d="M0,263.227c.566-1,1.115-2.01,1.7-3a3.073,3.073,0,0,1,3.729-1.6c1.328.3,1.328.3,1.75-1.008A3.023,3.023,0,0,1,10.2,255.35c.884-.019,1.768-.015,2.652,0a3.034,3.034,0,0,1,3.1,2.345c.383,1.257.383,1.257,1.671.952a3.1,3.1,0,0,1,3.8,1.589c.388.638.775,1.278,1.155,1.921a2.9,2.9,0,0,1-.512,3.931,13.358,13.358,0,0,1-1.1.865c.54.462.926.745,1.255,1.083a2.842,2.842,0,0,1,.444,3.613Q22,272.8,21.3,273.919a3.012,3.012,0,0,1-3.433,1.441c-1.49-.31-1.5-.312-1.965,1.121A3.338,3.338,0,0,1,13.61,278.6H9.527a3.3,3.3,0,0,1-2.3-2.1c-.475-1.454-.482-1.452-2.017-1.135a2.977,2.977,0,0,1-3.372-1.426C1.189,272.884.608,271.789,0,270.711v-1.225l1.716-2.5L0,264.452v-1.225M20.412,270.1c-.843-.92-1.892-1.68-1.91-3.1-.019-1.455,1.074-2.218,1.909-3.155l-.755-1.261c-.828-1.382-.828-1.382-2.417-1.045a3,3,0,0,1-3.519-1.856c-.206-.535-.292-1.277-.687-1.535-.417-.272-1.138-.085-1.726-.087-1.394,0-1.394,0-1.811,1.32a3,3,0,0,1-3.709,2.131,10.984,10.984,0,0,0-1.124-.255.623.623,0,0,0-.507.187c-.51.792-.981,1.608-1.471,2.426.935.926,1.938,1.726,1.923,3.144S3.542,269.2,2.7,270.1c.256.434.483.824.716,1.211.866,1.444.867,1.443,2.518,1.1a2.993,2.993,0,0,1,3.456,1.857c.2.522.245,1.269.621,1.513.42.272,1.136.1,1.723.1,1.46.006,1.46,0,1.9-1.372a2.988,2.988,0,0,1,3.62-2.079,8.613,8.613,0,0,0,1.124.25.768.768,0,0,0,.608-.227c.5-.753.944-1.541,1.428-2.348" transform="translate(0 -208.927)"/>
          <path id="Trazado_601018" data-name="Trazado 601018" d="M265.706,278.6a3.424,3.424,0,0,1-2.489-2.843c-.1-.579-.356-.842-.975-.586a5.047,5.047,0,0,1-.925.214,2.966,2.966,0,0,1-3.186-1.3c-.508-.776-.973-1.582-1.442-2.383a2.845,2.845,0,0,1,.461-3.717c.317-.319.69-.582,1.213-1.016-.509-.412-.888-.666-1.2-.984a2.852,2.852,0,0,1-.478-3.716c.4-.685.812-1.362,1.223-2.04a3.091,3.091,0,0,1,3.734-1.6c1.331.3,1.331.3,1.748-1.01a3.027,3.027,0,0,1,3.024-2.269c.884-.018,1.769-.016,2.652,0a3.041,3.041,0,0,1,3.1,2.351c.027.086.054.173.079.26.3,1.007.3,1.007,1.33.76,2.093-.5,3.1-.079,4.2,1.753.361.6.731,1.2,1.082,1.807a2.871,2.871,0,0,1-.445,3.671c-.315.324-.671.606-1.2,1.079a14.735,14.735,0,0,1,1.183.966,2.857,2.857,0,0,1,.475,3.666c-.428.746-.875,1.483-1.328,2.214a3.031,3.031,0,0,1-3.479,1.48c-1.472-.308-1.48-.31-1.958,1.143a3.3,3.3,0,0,1-2.305,2.105Zm10.949-8.564c-.358-.332-.721-.639-1.047-.98a2.853,2.853,0,0,1-.023-4.138c1.027-1.087,1.027-1.087.276-2.337-.826-1.375-.826-1.375-2.42-1.038a3.024,3.024,0,0,1-3.5-1.8c-.22-.553-.3-1.328-.71-1.595-.433-.282-1.182-.086-1.793-.088-1.329,0-1.329,0-1.743,1.322a3,3,0,0,1-3.71,2.128,6.991,6.991,0,0,0-1.058-.232.771.771,0,0,0-.6.227c-.5.752-.941,1.539-1.507,2.486a11.768,11.768,0,0,1,1.043.852,2.871,2.871,0,0,1-.016,4.285c-.945.971-.945.971-.253,2.124.889,1.482.889,1.482,2.56,1.142a2.989,2.989,0,0,1,3.468,1.94c.559,1.539.559,1.539,2.2,1.539,1.562,0,1.562,0,2.057-1.451a2.961,2.961,0,0,1,3.6-2,8.218,8.218,0,0,0,1.124.249.764.764,0,0,0,.6-.241c.5-.753.942-1.539,1.457-2.4" transform="translate(-209.634 -208.928)"/>
          <path id="Trazado_601020" data-name="Trazado 601020" d="M273.892,46.434a1.311,1.311,0,0,1-1.309-1.351,1.352,1.352,0,0,1,1.354-1.324,1.391,1.391,0,0,1,1.355,1.406,1.335,1.335,0,0,1-1.4,1.269" transform="translate(-223.038 -35.805)"/>
          <path id="Trazado_601021" data-name="Trazado 601021" d="M37.385,297.978a4.766,4.766,0,0,1,9.532-.031,4.766,4.766,0,1,1-9.532.031m2.721-.014a2.044,2.044,0,1,0,4.088,0,2.044,2.044,0,0,0-4.088,0" transform="translate(-30.59 -239.91)"/>
          <path id="Trazado_601022" data-name="Trazado 601022" d="M298.4,293.211a4.781,4.781,0,0,1,4.673,4.908,4.766,4.766,0,1,1-4.673-4.908m1.954,4.744a2.071,2.071,0,0,0-2.055-2.02,2.094,2.094,0,0,0-2.033,2.051,2.137,2.137,0,0,0,2.064,2.036,2.113,2.113,0,0,0,2.024-2.067" transform="translate(-240.186 -239.915)"/>
          <path id="Trazado_601023" data-name="Trazado 601023" d="M27.646,14.293H38.351s1.675,3.6,0,5.351-4.588,2.913-5.462,2.767a23.064,23.064,0,0,1-4.369-1.6A18.354,18.354,0,0,1,26.845,17.1C26.845,16.877,27.646,14.293,27.646,14.293Z" transform="translate(2.063 1.098)" fill="#ffe0c1"/>
          <path id="Trazado_601019" data-name="Trazado 601019" d="M80.856,30.586c1.24-5.4,4.576-8.182,9.9-8.367A14.162,14.162,0,0,1,89.5,18.805a22.067,22.067,0,0,1,.055-5.882,7.393,7.393,0,0,1,7.879-5.871,7.482,7.482,0,0,1,6.9,6.864,26.228,26.228,0,0,1-.183,5.211,13.71,13.71,0,0,1-1.228,3.092q8.032.269,9.932,8.312a3.744,3.744,0,0,0,.266-.38,18.414,18.414,0,0,0,1.38-14.607c-.046-.152-.1-.3-.149-.451a1.361,1.361,0,1,1,2.576-.849,20.216,20.216,0,0,1,1.023,9.51,21.019,21.019,0,0,1-11.673,16.579,20.03,20.03,0,0,1-7.61,2.126c-.131.012-.26.033-.422.054V56.705h.731c2.064,0,4.128-.009,6.192.006a1.346,1.346,0,0,1,1.452,1.3,1.388,1.388,0,0,1-1.373,1.4c-.18.017-.363.011-.544.011H89.2c-.227,0-.454.009-.68-.008a1.38,1.38,0,0,1-1.412-1.426,1.344,1.344,0,0,1,1.471-1.28c2.041-.014,4.083-.005,6.124-.006h.763V42.622c-1.524-.318-3.048-.543-4.518-.958A21.243,21.243,0,0,1,94.187.184a20.806,20.806,0,0,1,14.727,3.567c.094.064.187.129.277.2a1.36,1.36,0,1,1-1.536,2.24c-.85-.518-1.676-1.089-2.565-1.53a18.563,18.563,0,0,0-26.572,13.91,18.08,18.08,0,0,0,1.976,11.389c.1.2.222.385.363.629m20.873,8.62c.832-.3,1.565-.582,2.309-.829a.706.706,0,0,0,.529-.8c-.022-1.9-.019-3.805,0-5.708a1.354,1.354,0,0,1,1.314-1.506,1.385,1.385,0,0,1,1.4,1.508c.021.656.005,1.314.005,1.97,0,.869,0,1.739,0,2.779.521-.393.877-.7,1.268-.949a3.307,3.307,0,0,0,1.649-3.394,8.549,8.549,0,0,0-1.2-4.249c-1.692-2.475-4.14-3.223-6.988-3-.153.012-.354.246-.42.419-.336.888-.6,1.8-.957,2.682a3.621,3.621,0,0,0-.178,1.988c.275,1.789.5,3.586.751,5.379.167,1.2.338,2.406.523,3.717M86.2,36.512l.178-.117c0-1.448,0-2.9,0-4.343,0-1.05.51-1.682,1.349-1.694s1.368.611,1.37,1.659c0,1.859-.007,3.718.013,5.577,0,.21.106.543.255.607.86.37,1.748.676,2.684,1.026.316-2.468.553-4.813.934-7.135a9.407,9.407,0,0,0-.475-5.56c-.686-1.548-.581-1.594-2.323-1.521a6.627,6.627,0,0,0-6.417,5.354,22.1,22.1,0,0,0-.176,3.588.606.606,0,0,0,.178.415c.8.724,1.617,1.431,2.428,2.144m5.862-20.3c0,.6-.025,1.1,0,1.59a4.793,4.793,0,0,0,5.255,4.427c2.711-.3,4.408-2.386,4.39-5.35,0-.51-.149-.66-.656-.651a19.47,19.47,0,0,1-3.93-.072,6.2,6.2,0,0,0-3.34.026,5.7,5.7,0,0,1-1.724.029m6.977,23.509c-.427-3.112-.835-6.111-1.263-9.109a.484.484,0,0,0-.331-.321c-.489-.037-.983-.015-1.5-.015l-1.206,9.445Zm2.466-26.214a4.761,4.761,0,0,0-4.757-3.775c-2.215.076-4.312,1.8-4.5,3.7a1.818,1.818,0,0,0,2.21-.653,1.391,1.391,0,0,1,2.1.079,1.756,1.756,0,0,0,.969.618c1.307.072,2.62.029,3.985.029M98.814,25.053h-3.9c.468,2.375.664,2.564,2.546,2.5a.757.757,0,0,0,.268-.015c.113-.051.266-.122.3-.22.269-.735.514-1.48.782-2.266" transform="translate(-61.874 0)"/>
        </g>
      </g>
    </g>
  </g>
</svg>
