<svg xmlns="http://www.w3.org/2000/svg" xmlns:xlink="http://www.w3.org/1999/xlink" width="131" height="126" viewBox="0 0 131 126">
  <defs>
    <clipPath id="clip-path">
      <rect id="Rectángulo_46718" data-name="Rectángulo 46718" width="68.405" height="68.4" fill="none"/>
    </clipPath>
  </defs>
  <g id="Grupo_160961" data-name="Grupo 160961" transform="translate(-398 -5480)">
    <rect id="Rectángulo_47058" data-name="Rectángulo 47058" width="131" height="126" transform="translate(398 5480)" fill="#f2fbe6"/>
    <g id="Grupo_160952" data-name="Grupo 160952" transform="translate(-335 21)">
      <circle id="Elipse_1150" data-name="Elipse 1150" cx="50.5" cy="50.5" r="50.5" transform="translate(748 5472)" fill="#fff"/>
      <g id="Grupo_160702" data-name="Grupo 160702">
        <rect id="Rectángulo_46719" data-name="Rectángulo 46719" width="19" height="20" rx="4" transform="translate(812 5523)" fill="#e8e3f0"/>
        <g id="Grupo_160701" data-name="Grupo 160701" transform="translate(763.797 5488.108)">
          <g id="Grupo_160700" data-name="Grupo 160700" clip-path="url(#clip-path)">
            <path id="Trazado_601043" data-name="Trazado 601043" d="M25.027,151.272c4.492-1.706,7.819-.816,9.8,2.545a7.08,7.08,0,0,1-2.291,9.6c.618,1.01,1.267,2.013,1.857,3.048a3.538,3.538,0,0,1-5.293,4.525,1.423,1.423,0,0,0-.7-.335A21.315,21.315,0,0,0,16.5,173.329c.149.25.279.474.415.694q2.168,3.51,4.336,7.019a2.433,2.433,0,0,1-.871,3.759c-.5.315-1,.626-1.5.928a2.43,2.43,0,0,1-3.561-.844q-2.3-3.686-4.568-7.4a1.083,1.083,0,0,0-1.032-.6,11.658,11.658,0,0,1-1.969-.459,1.319,1.319,0,0,0-.77-.022,4.735,4.735,0,0,1-6.255-1.72,4.683,4.683,0,0,1,1.263-6.3.985.985,0,0,0,.351-.7,3.649,3.649,0,0,1,1.92-3.48,44.956,44.956,0,0,0,7.5-5.442A20.015,20.015,0,0,0,16.616,152a1.914,1.914,0,0,0,.113-1.049,3.55,3.55,0,0,1,2.046-3.994,3.483,3.483,0,0,1,4.353,1.279c.666.994,1.273,2.028,1.9,3.032m-9.8,20.048a23.775,23.775,0,0,1,11.946-3.11l-8.835-14.28a23.861,23.861,0,0,1-8.089,9.341l4.978,8.049m5.25-22.273c-1.24.035-1.729,1.013-1.2,1.9.818,1.369,1.672,2.715,2.511,4.071q4.16,6.728,8.331,13.449c.221.354.562.785.917.863a1.605,1.605,0,0,0,1.224-.379c.458-.41.319-.975.006-1.48q-2.638-4.252-5.268-8.508c-1.871-3.025-3.729-6.058-5.625-9.066a4.244,4.244,0,0,0-.895-.849M8.24,164.527c-1.026.634-1.971,1.2-2.9,1.8a1.14,1.14,0,0,0-.464,1.7q1.832,3.02,3.715,6.008a1.073,1.073,0,0,0,1.542.392c1.022-.578,2.008-1.217,3.07-1.868L8.24,164.527m18.09-11.132,4.916,7.941a4.67,4.67,0,1,0-4.916-7.941M12.474,175.821l4.965,8.022,2-1.244-4.963-8.02-2,1.243m-8.983-5.513a2.263,2.263,0,0,0-.693,3.316,2.168,2.168,0,0,0,3.082.543l-2.389-3.859" transform="translate(0 -117.773)"/>
            <path id="Trazado_601044" data-name="Trazado 601044" d="M239.509,179.5c0-2.653,0-5.306,0-7.959a3.543,3.543,0,0,1,3.777-3.783q6.853-.008,13.705,0a3.53,3.53,0,0,1,3.745,3.74q.011,8.069,0,16.139a3.522,3.522,0,0,1-3.7,3.709q-6.926.014-13.852,0a3.524,3.524,0,0,1-3.67-3.666c-.012-2.726,0-5.453,0-8.18m18.872.054q0-3.944,0-7.889c0-1.156-.392-1.548-1.547-1.549q-6.708,0-13.416,0c-1.159,0-1.548.389-1.548,1.546q0,7.889,0,15.777c0,1.157.391,1.549,1.545,1.55q6.708,0,13.416,0c1.156,0,1.548-.393,1.55-1.547q0-3.944,0-7.889" transform="translate(-192.337 -134.716)"/>
            <path id="Trazado_601045" data-name="Trazado 601045" d="M90.785,18.563c-.375,1.852-.738,3.577-1.068,5.308a1.4,1.4,0,0,1-1.125,1.269,1.366,1.366,0,0,1-1.489-.8c-1.03-1.729-2.081-3.446-3.092-5.186a1.019,1.019,0,0,0-1.036-.6,8.906,8.906,0,0,1-2.136-.123,3.827,3.827,0,0,1-3.058-3.732c-.03-3.615-.038-7.231,0-10.845A3.875,3.875,0,0,1,81.6.027q8.071-.054,16.142,0a3.888,3.888,0,0,1,3.86,3.865q.057,5.381,0,10.762a3.92,3.92,0,0,1-3.913,3.9c-1.986.033-3.973.008-5.96.009h-.948M87.73,20.216c.235-1.124.416-2.005.6-2.884.242-1.131.591-1.416,1.753-1.417,2.454,0,4.908.007,7.362-.006a1.332,1.332,0,0,0,1.512-1.459q.021-5.17,0-10.341a1.307,1.307,0,0,0-1.444-1.441q-7.817-.017-15.633,0a1.305,1.305,0,0,0-1.459,1.424q-.023,5.212,0,10.423a1.3,1.3,0,0,0,1.408,1.392c.744.024,1.49.031,2.233,0a1.649,1.649,0,0,1,1.625.908c.618,1.07,1.268,2.122,2.037,3.4" transform="translate(-64.961 1.382)"/>
            <path id="Trazado_601046" data-name="Trazado 601046" d="M227.355,18.033a11.794,11.794,0,1,1-11.781,11.916,11.808,11.808,0,0,1,11.781-11.916M236.8,29.86a9.434,9.434,0,1,0-9.45,9.4,9.442,9.442,0,0,0,9.45-9.4" transform="translate(-173.118 -14.481)"/>
            <path id="Trazado_601047" data-name="Trazado 601047" d="M155.476,132.611c-.165.662-.34,1.526-.6,2.362a1,1,0,0,1-1.3.658,1.008,1.008,0,0,1-.91-1.144,16.7,16.7,0,0,1,.634-2.7,1.02,1.02,0,0,1,1.32-.641c.623.168.911.618.857,1.467" transform="translate(-122.587 -105.277)"/>
            <path id="Trazado_601048" data-name="Trazado 601048" d="M194.2,207.382c.794.2,1.711.379,2.588.676a1.145,1.145,0,0,1-.511,2.181,16.142,16.142,0,0,1-2.707-.635,1.023,1.023,0,0,1-.617-1.335c.137-.57.56-.832,1.247-.888" transform="translate(-154.915 -166.54)"/>
            <path id="Trazado_601049" data-name="Trazado 601049" d="M190.482,162a2.843,2.843,0,0,1-.573.744,17.952,17.952,0,0,1-1.93,1.2,1.167,1.167,0,1,1-1.207-2c.628-.424,1.27-.835,1.936-1.2A1.209,1.209,0,0,1,190.482,162" transform="translate(-149.527 -128.971)"/>
            <path id="Trazado_601050" data-name="Trazado 601050" d="M57.017,200.984l-4.978-8.049a23.862,23.862,0,0,0,8.089-9.341l8.835,14.28a23.778,23.778,0,0,0-11.946,3.11" transform="translate(-41.79 -147.437)" fill="#9babff"/>
            <path id="Trazado_601051" data-name="Trazado 601051" d="M98.219,158.8a4.245,4.245,0,0,1,.895.849c1.9,3.008,3.754,6.042,5.625,9.066q2.632,4.255,5.268,8.508c.313.5.452,1.07-.006,1.48a1.6,1.6,0,0,1-1.224.379c-.355-.078-.7-.509-.917-.863q-4.185-6.712-8.331-13.449c-.838-1.356-1.693-2.7-2.51-4.071-.528-.885-.039-1.863,1.2-1.9" transform="translate(-77.742 -127.523)" fill="#8f8f8f"/>
            <path id="Trazado_601052" data-name="Trazado 601052" d="M27.257,237.4l4.963,8.027c-1.062.65-2.048,1.29-3.07,1.867a1.073,1.073,0,0,1-1.542-.392q-1.886-2.986-3.715-6.008a1.14,1.14,0,0,1,.464-1.7c.93-.594,1.875-1.164,2.9-1.8" transform="translate(-19.017 -190.649)" fill="#8f8f8f"/>
            <path id="Trazado_601053" data-name="Trazado 601053" d="M133.693,177.873a4.67,4.67,0,1,1,4.916,7.941l-4.916-7.941" transform="translate(-107.363 -142.251)" fill="#ade65f"/>
            <path id="Trazado_601054" data-name="Trazado 601054" d="M63.337,289.685l2-1.243,4.963,8.02-2,1.244-4.966-8.022" transform="translate(-50.863 -231.636)" fill="#8f8f8f"/>
            <path id="Trazado_601055" data-name="Trazado 601055" d="M13.075,266.758l2.389,3.859a2.168,2.168,0,0,1-3.082-.543,2.263,2.263,0,0,1,.693-3.316" transform="translate(-9.584 -214.222)" fill="#9babff"/>
            <path id="Trazado_601056" data-name="Trazado 601056" d="M246.412,39.472A9.434,9.434,0,1,1,236.959,30a9.447,9.447,0,0,1,9.453,9.47m-14.151-.082c0,1.474-.005,2.949,0,4.423.006,1.32.807,1.833,1.983,1.25,2.967-1.471,5.924-2.962,8.89-4.433a1.238,1.238,0,0,0,.018-2.377c-2.966-1.472-5.924-2.962-8.89-4.433-1.189-.589-1.993-.093-2,1.22-.008,1.45,0,2.9,0,4.35" transform="translate(-182.73 -24.093)" fill="#fff"/>
            <path id="Trazado_601057" data-name="Trazado 601057" d="M274.169,213.144a4.717,4.717,0,1,1,4.734-4.722,4.727,4.727,0,0,1-4.734,4.722m2.374-4.724a2.356,2.356,0,1,0-2.332,2.361,2.376,2.376,0,0,0,2.332-2.361" transform="translate(-216.4 -163.59)"/>
            <path id="Trazado_601058" data-name="Trazado 601058" d="M108.55,26.651c-1.654,0-3.308.005-4.962,0-1.013,0-1.645-.544-1.622-1.357.023-.784.633-1.286,1.607-1.288q4.962-.008,9.924,0c1.013,0,1.644.541,1.62,1.356-.023.787-.631,1.285-1.605,1.29-1.654.008-3.308,0-4.962,0" transform="translate(-83.815 -17.308)"/>
            <path id="Trazado_601059" data-name="Trazado 601059" d="M106.607,47.955c1.02,0,2.04-.012,3.06,0a1.33,1.33,0,1,1-.006,2.641q-3.1.019-6.2,0a1.33,1.33,0,1,1,.006-2.641c1.047-.015,2.1,0,3.143,0" transform="translate(-83.82 -35.96)"/>
            <path id="Trazado_601060" data-name="Trazado 601060" d="M251.49,53.961c0-1.45-.006-2.9,0-4.35.007-1.313.812-1.809,2-1.22,2.967,1.471,5.924,2.96,8.89,4.433a1.237,1.237,0,0,1-.018,2.377c-2.966,1.472-5.923,2.963-8.89,4.433-1.176.583-1.977.07-1.983-1.25-.007-1.475,0-2.949,0-4.423m2.379,2.852,5.594-2.806-5.594-2.8Z" transform="translate(-201.959 -38.664)"/>
            <path id="Trazado_601061" data-name="Trazado 601061" d="M286.171,218.047a2.356,2.356,0,1,1-2.344-2.35,2.366,2.366,0,0,1,2.344,2.35" transform="translate(-226.028 -173.217)" fill="#fff"/>
            <path id="Trazado_601062" data-name="Trazado 601062" d="M263.578,69.3V63.7l5.594,2.8L263.578,69.3" transform="translate(-211.669 -51.152)" fill="#fff"/>
          </g>
        </g>
      </g>
    </g>
  </g>
</svg>
