<svg xmlns="http://www.w3.org/2000/svg" xmlns:xlink="http://www.w3.org/1999/xlink" width="90" height="90" viewBox="0 0 90 90">
  <defs>
    <clipPath id="clip-path">
      <rect id="Rectángulo_46706" data-name="Rectángulo 46706" width="58.837" height="48.804" fill="#fff"/>
    </clipPath>
  </defs>
  <g id="Grupo_160683" data-name="Grupo 160683" transform="translate(-810 -1788)">
    <g id="Grupo_160659" data-name="Grupo 160659" transform="translate(810 1788)">
      <path id="Trazado_600840" data-name="Trazado 600840" d="M45,0A45,45,0,1,1,0,45,45,45,0,0,1,45,0Z" fill="#69489b"/>
    </g>
    <g id="Grupo_160679" data-name="Grupo 160679" transform="translate(826 1809)">
      <g id="Grupo_160678" data-name="Grupo 160678" clip-path="url(#clip-path)">
        <path id="Trazado_600988" data-name="Trazado 600988" d="M0,160.36a18.53,18.53,0,0,1,.91-2.752A8.272,8.272,0,0,1,8.428,152.8a70.1,70.1,0,0,1,7.056.111,1.63,1.63,0,0,0,1.791-.819,8.334,8.334,0,0,1,7.229-3.731c3.522-.006,7.046-.046,10.565.067a8.042,8.042,0,0,1,6.717,3.988c.316.49.562.7,1.164.523a5.905,5.905,0,0,1,1.594-.155q2.843-.025,5.686,0a8.668,8.668,0,0,1,8.582,7.759,9.534,9.534,0,0,1,.022,1.033q0,4.336,0,8.673a5.192,5.192,0,0,1-5.509,5.55c-3.312.015-6.624,0-9.936,0H5.713a5.985,5.985,0,0,1-2.887-.585,5.184,5.184,0,0,1-2.713-3.51A3.17,3.17,0,0,0,0,171.391V160.36M39.654,172.3v-.576q0-7.238,0-14.477a5.149,5.149,0,0,0-5.42-5.4q-4.8-.008-9.594,0a5.158,5.158,0,0,0-5.457,5.475q0,7.181,0,14.362v.613ZM15.7,172.32v-.757c0-4.805-.015-9.611.02-14.416,0-.639-.18-.842-.778-.844-2.1-.006-4.209-.044-6.314-.047a4.509,4.509,0,0,0-1.187.16,5.134,5.134,0,0,0-3.985,5.158c-.031,2.967-.017,5.935,0,8.9a1.723,1.723,0,0,0,1.883,1.842q3.475.007,6.95,0H15.7m27.435-.037c.163.018.238.034.314.034,3.408,0,6.816.007,10.223,0a1.659,1.659,0,0,0,1.7-1.722c-.006-3.329,0-6.66-.114-9.986a4.928,4.928,0,0,0-4.369-4.267c-1.623-.078-3.25-.082-4.876-.091-.8,0-1.605.052-2.407.088-.326.014-.494.124-.493.523.019,4.9.016,9.8.019,14.7,0,.226,0,.453,0,.721" transform="translate(0 -127.001)" fill="#fff"/>
        <path id="Trazado_600989" data-name="Trazado 600989" d="M143.579,0a10.241,10.241,0,1,1-10.234,10.14A10.22,10.22,0,0,1,143.579,0m6.772,10.21a6.78,6.78,0,1,0-6.785,6.8,6.786,6.786,0,0,0,6.785-6.8" transform="translate(-114.153 0)" fill="#fff"/>
        <path id="Trazado_600990" data-name="Trazado 600990" d="M34.182,81.289a7.679,7.679,0,1,1,7.679-7.674,7.727,7.727,0,0,1-7.679,7.674m4.182-7.682a4.179,4.179,0,1,0-4.189,4.2,4.17,4.17,0,0,0,4.189-4.2" transform="translate(-22.682 -56.442)" fill="#fff"/>
        <path id="Trazado_600991" data-name="Trazado 600991" d="M283.2,81.287a7.679,7.679,0,1,1,7.71-7.649,7.72,7.72,0,0,1-7.71,7.649m4.2-7.693a4.178,4.178,0,0,0-8.357.011,4.178,4.178,0,1,0,8.357-.011" transform="translate(-235.884 -56.44)" fill="#fff"/>
      </g>
    </g>
  </g>
</svg>
