<svg xmlns="http://www.w3.org/2000/svg" xmlns:xlink="http://www.w3.org/1999/xlink" width="43" height="36" viewBox="0 0 43 36">
  <defs>
    <clipPath id="clip-path">
      <rect id="Rectángulo_45740" data-name="Rectángulo 45740" width="26" height="25.754" fill="#fff"/>
    </clipPath>
  </defs>
  <g id="Grupo_160937" data-name="Grupo 160937" transform="translate(-180 -3885)">
    <g id="Grupo_159385" data-name="Grupo 159385" transform="translate(0 155)">
      <circle id="Elipse_5614" data-name="Elipse 5614" cx="18" cy="18" r="18" transform="translate(187 3730)" fill="#283a98"/>
      <path id="Trazado_599485" data-name="Trazado 599485" d="M130.085,318.387l-.047-.048a8.067,8.067,0,0,0-1.488-1.5l-7.621-7.687,0,0a8.039,8.039,0,1,0-12.1,10.581l-.007.006.131.131q.157.167.324.325l8.57,8.582,0,0a8.037,8.037,0,0,0,12.232-10.383Z" transform="translate(73.252 3423.689)" fill="#69489b"/>
      <g id="Grupo_159384" data-name="Grupo 159384" transform="translate(192.221 3735.123)">
        <g id="Grupo_159383" data-name="Grupo 159383" clip-path="url(#clip-path)">
          <path id="Trazado_599486" data-name="Trazado 599486" d="M20.082,15.934c-2.7-1.028-4.484-3.044-6.056-5.325-.139.382-.271.729-.387,1.082-.02.06.026.145.051.215.167.475.329.951.509,1.421a.956.956,0,0,0,.239.359c.856.771,1.713,1.541,2.587,2.292a.693.693,0,0,1,.256.726q-.349,2-.668,4.012a.576.576,0,0,0,.094.35q1.247,2.061,2.507,4.115c.056.092.109.186.172.293l-.522.281-.941-1.537c-.59-.964-1.168-1.935-1.776-2.888a1.045,1.045,0,0,1-.141-.808c.224-1.277.434-2.556.641-3.835a.329.329,0,0,0-.063-.257c-.7-.642-1.419-1.274-2.131-1.908-.011-.01-.035-.006-.081-.013,0,.554.023,1.105,0,1.654a19.263,19.263,0,0,1-1.083,5.124c-.038.114-.2.268-.295.262s-.248-.16-.289-.279a19.23,19.23,0,0,1-1.01-4.355c-.076-.8-.093-1.6-.136-2.391a.468.468,0,0,0-.1.062c-.653.581-1.309,1.159-1.949,1.754a.491.491,0,0,0-.124.379c.215,1.338.45,2.674.671,4.011a.536.536,0,0,1-.051.339Q8.589,23.391,7.155,25.7c0,.008-.016.011-.046.03l-.466-.29c.059-.1.109-.194.164-.283.831-1.363,1.666-2.723,2.488-4.09a.763.763,0,0,0,.112-.467q-.313-2.009-.666-4.012a.546.546,0,0,1,.2-.572c.858-.754,1.717-1.508,2.559-2.279a1.529,1.529,0,0,0,.325-.536c.177-.418.336-.844.485-1.272a.66.66,0,0,0,.017-.377c-.092-.317-.215-.626-.336-.967-1.57,2.284-3.359,4.313-6.066,5.344.1.3.2.6.3.892.3.869.6,1.738.91,2.605a.477.477,0,0,1-.059.5Q5.707,21.712,4.35,23.5c-.024.031-.053.057-.1.1L3.8,23.246l1.915-2.522c.252-.332.511-.659.751-1a.37.37,0,0,0,.051-.289c-.37-1.075-.752-2.147-1.131-3.219a1.228,1.228,0,0,0-.053-.111,6.819,6.819,0,0,1-4.107-.135,8.207,8.207,0,0,1-.95-.421c-.327-.165-.347-.293-.125-.577a15.132,15.132,0,0,1,3.611-3.347,14.173,14.173,0,0,1,6.5-2.3c.58-.057,1.17-.009,1.756-.009l.069-.091a1.218,1.218,0,0,0-.182-.285Q10.331,7.565,8.752,6.2a.515.515,0,0,1-.193-.565,4.578,4.578,0,0,0,.019-2.323,1.934,1.934,0,0,0-.542-.89C7.288,1.82,6.486,1.286,5.7.726c-.1-.068-.2-.127-.312-.2l.279-.52A14.228,14.228,0,0,1,8.615,2.1a2.463,2.463,0,0,1,.67,1.765c.015.561-.065,1.125-.09,1.688a.436.436,0,0,0,.088.312c1.016.889,2.042,1.766,3.133,2.616-.019-.058-.021-.133-.059-.17a1.053,1.053,0,0,1,.223-1.8.381.381,0,0,0,.124-.283c.01-.734.006-1.468.006-2.2V3.721h.6v.82c0,.576-.005,1.151.006,1.726a.353.353,0,0,0,.125.257,1.063,1.063,0,0,1,.13,1.856l.117.161c1.038-.893,2.063-1.77,3.077-2.661a.464.464,0,0,0,.093-.361,6.088,6.088,0,0,1,.03-2.362A2.316,2.316,0,0,1,17.6,1.947,15.909,15.909,0,0,1,20.391,0l.264.5c-.589.392-1.163.763-1.724,1.151-.261.18-.493.4-.747.591a2.094,2.094,0,0,0-.818,1.8,11.046,11.046,0,0,0,.167,1.62.483.483,0,0,1-.174.516c-1.011.85-2.016,1.708-3.022,2.563A3.044,3.044,0,0,0,14.046,9a.661.661,0,0,0-.085.2.8.8,0,0,0,.206.07c.624.035,1.252.031,1.873.1a14.053,14.053,0,0,1,6.84,2.688,15.061,15.061,0,0,1,2.944,2.852c.261.331.246.438-.129.643a6.609,6.609,0,0,1-4.7.632l-.338-.075c-.322.928-.614,1.862-.975,2.77a1.123,1.123,0,0,0,.2,1.3c.767.923,1.465,1.9,2.19,2.859.047.062.089.127.15.215l-.469.36c-.064-.071-.126-.131-.177-.2-.866-1.137-1.726-2.278-2.6-3.41a.583.583,0,0,1-.094-.625c.408-1.135.794-2.277,1.2-3.442" transform="translate(0)" fill="#fff"/>
        </g>
      </g>
    </g>
  </g>
</svg>
