<svg xmlns="http://www.w3.org/2000/svg" xmlns:xlink="http://www.w3.org/1999/xlink" width="90" height="90" viewBox="0 0 90 90">
  <defs>
    <clipPath id="clip-path">
      <rect id="Rectángulo_46784" data-name="Rectángulo 46784" width="53.575" height="51.799" fill="#fff"/>
    </clipPath>
  </defs>
  <g id="Grupo_160890" data-name="Grupo 160890" transform="translate(-810 -1599)">
    <g id="Grupo_160659" data-name="Grupo 160659" transform="translate(810 1599)">
      <path id="Trazado_600840" data-name="Trazado 600840" d="M45,0A45,45,0,1,1,0,45,45,45,0,0,1,45,0Z" fill="#69489b"/>
    </g>
    <g id="Grupo_160765" data-name="Grupo 160765" transform="translate(827.72 1617.663)">
      <g id="Grupo_160764" data-name="Grupo 160764" clip-path="url(#clip-path)">
        <path id="Trazado_601103" data-name="Trazado 601103" d="M28.579,56.065c.153.069.374.1.439.212a2.026,2.026,0,0,1,.373.965.694.694,0,0,1-.817.663,5.387,5.387,0,0,1-1.5-.533.87.87,0,0,1-.291-.669c-.016-5.323-.012-10.646-.014-15.969a.983.983,0,0,1,.848-1.016,3.8,3.8,0,0,0,1.918-1,7.6,7.6,0,0,0-1.323-.671,15.137,15.137,0,0,0-8.2-.007,7.1,7.1,0,0,0-1.293.661q0,.13.009.26c.567.242,1.121.52,1.7.716.83.279.982.44.982,1.3q0,7.733,0,15.467c0,.8-.148.966-.911,1.25a11.534,11.534,0,0,0-7.961,10.084.619.619,0,0,0,.245.511,12.905,12.905,0,0,0,4.331,1.379A3.806,3.806,0,0,0,20.276,68.6a10.928,10.928,0,0,0,.887-.928,6.432,6.432,0,0,1,6.4-2.385,17.642,17.642,0,0,1,8.294,3.459,2.048,2.048,0,0,1,.334.294.835.835,0,0,1,.039,1.125.81.81,0,0,1-1.094.246,3.639,3.639,0,0,1-.5-.351,15.53,15.53,0,0,0-8.239-3.09,3.737,3.737,0,0,0-3.174,1.178c-.3.308-.6.615-.873.941a6.333,6.333,0,0,1-6.726,2.156c-1.02-.237-2-.627-3.032-.956a11.224,11.224,0,0,0,2.732,6.039,11.5,11.5,0,0,0,9.248,4.02c.938-.019,1.354.214,1.393.811s-.411.956-1.345.969a13.232,13.232,0,0,1-11.42-5.63.727.727,0,0,0-.908-.332C4.907,77.939-.131,72.264,0,66.35c.092-4.067,2.229-6.866,5.824-8.607a.772.772,0,0,0,.526-.828q-.031-4.522,0-9.045c0-.4-.063-.677-.49-.788a1.629,1.629,0,0,1-.442-.234,1.678,1.678,0,0,1,0-3.056,6.929,6.929,0,0,1,3.133-.9,10.751,10.751,0,0,1,4.785.5,4.169,4.169,0,0,1,1.118.61,1.581,1.581,0,0,1,.062,2.588,1.01,1.01,0,0,1-.359.26c-.9.231-.936.865-.924,1.651.043,2.828.024,5.658.008,8.487a.632.632,0,0,0,.449.7c.578.242,1.121.567,1.709.873a14.083,14.083,0,0,1,3.984-2.375c.123-.048.23-.313.231-.477.012-4.671.007-9.343.016-14.015a.509.509,0,0,0-.357-.528,7.83,7.83,0,0,1-1.667-.977,1.78,1.78,0,0,1,.034-2.823,6.465,6.465,0,0,1,3.3-1.39,15.4,15.4,0,0,1,7.771.4,5.881,5.881,0,0,1,1.872,1.056,1.717,1.717,0,0,1,.021,2.73,15.8,15.8,0,0,1-2.022,1.292ZM6.472,45.233l-.018.162c.238.1.472.209.716.288.854.278.959.412.959,1.309q0,5.357,0,10.715c0,.961-.108,1.1-.993,1.421a7.671,7.671,0,0,0-5.013,5.293c-.59,2.087-.642,1.63,1.2,2.373a3.356,3.356,0,0,0,4.244-1.057,3.229,3.229,0,0,1,.835-.814,4.432,4.432,0,0,1,1.978-.9c1.132.034,1.43-.6,1.842-1.4.5-.965,1.152-1.849,1.783-2.838-.589-.251-1.192-.53-1.812-.763a.971.971,0,0,1-.733-.989q.006-5.664,0-11.329a.932.932,0,0,1,.743-.975c.322-.1.634-.231.95-.349a8.2,8.2,0,0,0-6.685-.155m-4.464,23.1c.6,4.637,6.07,7.478,9.758,6.079a36.8,36.8,0,0,1-.947-4.292,37.734,37.734,0,0,1,.035-4.463,4.5,4.5,0,0,0-1.041.434,7.125,7.125,0,0,0-1.117,1.083,4.5,4.5,0,0,1-3.839,1.674,27.291,27.291,0,0,1-2.847-.516" transform="translate(0 -30.345)" fill="#fff"/>
        <path id="Trazado_601104" data-name="Trazado 601104" d="M183.052,139.539v1.787h.613c3.778,0,7.556.008,11.334-.015a1.568,1.568,0,0,0,.939-.342,8.379,8.379,0,0,0,2.869-8.784,8.515,8.515,0,0,0-6.593-6.7,1.39,1.39,0,0,0-.218-.012c-.011.179-.029.353-.03.527,0,1.21.007,2.42,0,3.63a1.776,1.776,0,0,1-1.864,1.861q-2.6.016-5.192,0a1.775,1.775,0,0,1-1.87-1.854q-.013-5.277,0-10.554c0-1.064.562-1.669,1.784-1.921,0-.8,0-1.613,0-2.427s.315-1.106,1.121-1.11c1.061,0,2.122-.007,3.182,0,.726.006,1.046.331,1.053,1.065.008.817,0,1.634,0,2.442,1.482.4,1.661.68,1.818,2.851a14.444,14.444,0,0,1,10.579,21.338c.631,0,1.2,0,1.768,0a1.8,1.8,0,0,1,1.914,1.926q.011,1.647,0,3.295a1.788,1.788,0,0,1-1.915,1.924q-11.474.006-22.947,0a1.8,1.8,0,0,1-1.936-1.96c0-.968,0-1.936,0-2.9,0-1.476.353-1.948,1.787-2.352,0-.808-.006-1.625,0-2.442.007-.731.328-1.058,1.058-1.059q5.192-.007,10.385,0c.643,0,1.056.373,1.044.908s-.422.874-1.079.875q-4.467.005-8.933,0h-.669m-1.767,7.1h23.158v-3.507H181.285Zm16.883-5.317c.687,0,1.243-.02,1.8.007a.719.719,0,0,0,.722-.377,11.91,11.91,0,0,0,1.655-9.5,12.489,12.489,0,0,0-10.189-9.629,10.889,10.889,0,0,0-1.943-.136.843.843,0,0,0-.921.847c-.014.5.28.815.868.9.2.03.408.027.612.038a10.755,10.755,0,0,1,9.827,13.191,11.218,11.218,0,0,1-2.428,4.659m-13.312-22.316v10.658h5.3v-4.375c-1.726-.372-2.653-1.348-2.634-2.758s.928-2.341,2.623-2.7v-.824Zm1.787-1.852h1.72V115.44h-1.72Z" transform="translate(-152.687 -96.676)" fill="#fff"/>
        <path id="Trazado_601105" data-name="Trazado 601105" d="M92.339,0A2.7,2.7,0,0,1,95,2.673a2.678,2.678,0,0,1-5.355-.035A2.7,2.7,0,0,1,92.339,0m.871,2.68A.889.889,0,0,0,91.435,2.6a.888.888,0,1,0,1.775.077" transform="translate(-76.273 0)" fill="#fff"/>
        <path id="Trazado_601106" data-name="Trazado 601106" d="M56.369,35.261a2.656,2.656,0,1,1,2.7-2.639,2.7,2.7,0,0,1-2.7,2.639m.03-3.533a.878.878,0,1,0,.875.9.908.908,0,0,0-.875-.9" transform="translate(-45.698 -25.482)" fill="#fff"/>
      </g>
    </g>
  </g>
</svg>
