<svg xmlns="http://www.w3.org/2000/svg" xmlns:xlink="http://www.w3.org/1999/xlink" width="90" height="90" viewBox="0 0 90 90">
  <defs>
    <clipPath id="clip-path">
      <rect id="Rectángulo_46893" data-name="Rectángulo 46893" width="54.297" height="60.458" fill="#fff"/>
    </clipPath>
  </defs>
  <g id="Grupo_160915" data-name="Grupo 160915" transform="translate(-1018 -9850)">
    <g id="Grupo_160805" data-name="Grupo 160805" transform="translate(208 8062)">
      <g id="Grupo_160659" data-name="Grupo 160659" transform="translate(810 1788)">
        <path id="Trazado_600840" data-name="Trazado 600840" d="M45,0A45,45,0,1,1,0,45,45,45,0,0,1,45,0Z" fill="#69489b"/>
      </g>
    </g>
    <g id="Grupo_160841" data-name="Grupo 160841" transform="translate(1035.852 9865)">
      <g id="Grupo_160840" data-name="Grupo 160840" clip-path="url(#clip-path)">
        <path id="Trazado_601144" data-name="Trazado 601144" d="M27.506,0a1.6,1.6,0,0,1,.835,1.612c-.027,2.852-.011,5.7-.011,8.494.843.362,1.674.648,2.435,1.063a4.317,4.317,0,0,1,2.013,2.309,4.126,4.126,0,0,1-1.672,4.907c-.142.1-.291.2-.48.325l.669.929c1.351-1.348,2.675-2.658,3.979-3.988a.864.864,0,0,0,.125-.545c.011-1.18.019-2.361,0-3.541A1.646,1.646,0,0,1,35.92,10.3q3.365-3.354,6.723-6.716c.779-.775,1.753-.66,2.119.231A1.279,1.279,0,0,1,44.318,5.3Q42,7.613,39.686,9.929c-.638.64-1.5,1.191-1.829,1.966a7.463,7.463,0,0,0-.084,2.627c-.028,2.313.279,1.753-1.437,3.478q-1.852,1.862-3.713,3.716c-.135.136-.261.281-.431.465,1.022.2,1.979.4,2.938.58a.448.448,0,0,0,.26-.093.973.973,0,0,0,.169-.163c2.131-2.119,1.169-1.675,4.233-1.723.944-.015,1.89.024,2.832-.019a1.215,1.215,0,0,0,.783-.36c2.068-2.373,4.108-4.769,6.163-7.153a2.666,2.666,0,0,1,.65-.586,1.054,1.054,0,0,1,1.351.193A1.039,1.039,0,0,1,51.8,14.2a8.235,8.235,0,0,1-.824,1.071c-2.058,2.407-4.127,4.8-6.181,7.215a1.713,1.713,0,0,1-1.43.663c-1.554-.026-3.109-.017-4.663,0a2.778,2.778,0,0,0-.7.2l.017.171c.948.347,1.9.676,2.842,1.045A31.79,31.79,0,0,1,50.169,29.9a11.627,11.627,0,0,1,3.815,5.42,7.038,7.038,0,0,1-11.408,7.306c-3.053-2.926-5.992-5.971-8.98-8.964-.146-.146-.3-.284-.477-.448-.089,1.5-.186,2.943-.243,4.387-.007.17.181.375.324.519,2.053,2.065,4.1,4.135,6.181,6.173a2.379,2.379,0,0,1,.769,1.878c-.038,2.459-.024,4.919,0,7.378a1.292,1.292,0,0,0,.33.808c1.272,1.315,2.581,2.594,3.866,3.9a1.222,1.222,0,0,1,.175,1.827,1.144,1.144,0,0,1-1.689.016c-1.592-1.551-3.169-3.119-4.7-4.726a1.8,1.8,0,0,1-.346-1.134c-.03-2.557-.011-5.115-.023-7.673a1,1,0,0,0-.176-.641c-1.68-1.71-3.382-3.4-5.135-5.15-.244.928-.454,1.79-.7,2.642a12.991,12.991,0,0,1-1.885,4.095c-1.458,2.022-3.661,2.16-5.2.293a9.151,9.151,0,0,1-1.027-1.575A19.02,19.02,0,0,1,21.956,41.1c-.015-.073-.043-.144-.086-.284a4.042,4.042,0,0,0-.372.289c-1.56,1.556-3.125,3.108-4.664,4.685a1.206,1.206,0,0,0-.3.765q-.033,3.807,0,7.614a1.909,1.909,0,0,1-.6,1.472c-1.429,1.409-2.839,2.837-4.262,4.252-.628.624-1.166.72-1.726.331a1.123,1.123,0,0,1-.337-1.553,5.373,5.373,0,0,1,.7-.794c1.15-1.159,2.3-2.319,3.468-3.46a1.166,1.166,0,0,0,.387-.923c-.016-2.538,0-5.076-.017-7.614a1.84,1.84,0,0,1,.587-1.412c2.081-2.065,4.144-4.148,6.228-6.209a1.229,1.229,0,0,0,.428-1.073c-.1-1.306-.135-2.618-.2-4-.193.181-.362.33-.52.489-2.946,2.953-5.841,5.958-8.851,8.843a6.981,6.981,0,0,1-8.947.525A7.063,7.063,0,0,1,.56,34.569a13.178,13.178,0,0,1,4.4-5.367,36.132,36.132,0,0,1,10.7-5.459c.167-.056.336-.107.5-.165.033-.012.058-.049.227-.2a3.656,3.656,0,0,0-.824-.23c-1.554-.018-3.109-.025-4.663,0a1.665,1.665,0,0,1-1.386-.63Q6.166,18.588,2.8,14.67a1.246,1.246,0,0,1-.036-1.877c.559-.473,1.261-.351,1.85.334Q7.06,15.968,9.5,18.815c.41.478.855.931,1.218,1.441a1.257,1.257,0,0,0,1.2.533c1.436-.031,2.873.006,4.308-.02a1.741,1.741,0,0,1,1.364.561c.477.491.906,1.184,1.49,1.371.558.178,1.287-.181,1.942-.3l1.13-.213c-.768-.764-1.464-1.453-2.157-2.145-.961-.959-1.912-1.928-2.884-2.876a1.787,1.787,0,0,1-.6-1.409c.029-1.121,0-2.243.016-3.364a1.158,1.158,0,0,0-.375-.928q-3.086-3.049-6.132-6.138A1.679,1.679,0,0,1,9.488,4.28a1.425,1.425,0,0,1,.593-1.026,1.806,1.806,0,0,1,1.146.021c.2.043.375.272.541.437,2.159,2.154,4.309,4.317,6.476,6.463a1.984,1.984,0,0,1,.653,1.568c-.035,1.12-.015,2.243,0,3.364a.867.867,0,0,0,.122.545c1.3,1.329,2.63,2.638,3.976,3.978l.66-.894c-.341-.266-.679-.5-.98-.772a4.107,4.107,0,0,1,.761-6.738,23.493,23.493,0,0,1,2.534-1.149c0-.553,0-1.239,0-1.925,0-2.2.019-4.407-.011-6.611A1.516,1.516,0,0,1,26.8,0Zm4.352,24.567c.311,1.576.6,3.093.92,4.6a1.5,1.5,0,0,0,.41.677q4.182,4.242,8.383,8.465c.845.851,1.664,1.732,2.557,2.529a4.673,4.673,0,0,0,7.295-5.572,11.88,11.88,0,0,0-4.163-4.641,36.906,36.906,0,0,0-15.4-6.059m-9.438.03c-.51.078-1.038.132-1.554.241A37.976,37.976,0,0,0,7.991,29.959a14.485,14.485,0,0,0-4.63,4.38,5.009,5.009,0,0,0-.552,4.978,4.711,4.711,0,0,0,7.746,1.162q5.338-5.337,10.633-10.718a1.056,1.056,0,0,0,.3-.477c.321-1.55.619-3.1.93-4.686m2.063,1.317c-.264,1.871-.559,3.629-.751,5.4a30.167,30.167,0,0,0,.224,7.177A20.75,20.75,0,0,0,25.9,45.42c.285.553.562,1.277,1.26,1.268.659-.008.938-.7,1.214-1.246a22.822,22.822,0,0,0,2.18-9.271,49.573,49.573,0,0,0-.117-6.124,41.076,41.076,0,0,0-.691-4.1,5.019,5.019,0,0,1-5.261-.03m2.665-8.679a4.5,4.5,0,0,0,2.8-.967,1.721,1.721,0,0,0,.041-2.753A4.628,4.628,0,0,0,24.32,13.5a1.7,1.7,0,0,0,.007,2.75,4.44,4.44,0,0,0,2.82.984m-.022,7.078a2.354,2.354,0,1,0-2.334-2.341,2.4,2.4,0,0,0,2.334,2.341" transform="translate(0)" fill="#fff"/>
        <path id="Trazado_601145" data-name="Trazado 601145" d="M356.852,262.445a1.974,1.974,0,0,1,.457.158,16.046,16.046,0,0,1,4.753,3.888A1.17,1.17,0,0,1,362.2,268a1.1,1.1,0,0,1-1.29.457,1.334,1.334,0,0,1-.623-.411,15.031,15.031,0,0,0-4.028-3.306c-.7-.424-.888-.911-.677-1.511a1.151,1.151,0,0,1,1.27-.787" transform="translate(-313.45 -231.401)" fill="#fff"/>
        <path id="Trazado_601146" data-name="Trazado 601146" d="M319.366,246.758a1.166,1.166,0,0,1,1.174-1.2,1.177,1.177,0,1,1,0,2.353,1.165,1.165,0,0,1-1.169-1.15" transform="translate(-281.589 -216.508)" fill="#fff"/>
        <path id="Trazado_601147" data-name="Trazado 601147" d="M50.414,262.459a1.145,1.145,0,0,1,1.256.739,1.077,1.077,0,0,1-.349,1.322c-.5.37-1.087.641-1.562,1.042-.94.793-1.845,1.63-2.733,2.481a1.2,1.2,0,1,1-1.814-1.553,14.209,14.209,0,0,1,3.4-3.048c.388-.264.788-.515,1.2-.743a3.913,3.913,0,0,1,.6-.241" transform="translate(-39.558 -231.413)" fill="#fff"/>
        <path id="Trazado_601148" data-name="Trazado 601148" d="M120.732,245.549a1.178,1.178,0,1,1-.019,2.355,1.178,1.178,0,0,1,.019-2.355" transform="translate(-105.412 -216.504)" fill="#fff"/>
      </g>
    </g>
  </g>
</svg>
