<svg xmlns="http://www.w3.org/2000/svg" xmlns:xlink="http://www.w3.org/1999/xlink" width="90" height="90" viewBox="0 0 90 90">
  <defs>
    <clipPath id="clip-path">
      <rect id="Rectángulo_46785" data-name="Rectángulo 46785" width="58.257" height="47.614" fill="#fff"/>
    </clipPath>
  </defs>
  <g id="Grupo_160891" data-name="Grupo 160891" transform="translate(-285 -1599)">
    <g id="Grupo_160658" data-name="Grupo 160658" transform="translate(105 -3146)">
      <path id="Trazado_600839" data-name="Trazado 600839" d="M45,0A45,45,0,1,1,0,45,45,45,0,0,1,45,0Z" transform="translate(180 4745)" fill="#69489b"/>
    </g>
    <g id="Grupo_160767" data-name="Grupo 160767" transform="translate(301 1620)">
      <g id="Grupo_160766" data-name="Grupo 160766" clip-path="url(#clip-path)">
        <path id="Trazado_601107" data-name="Trazado 601107" d="M54.051,37.949c.126.027.382.07.631.136a4.945,4.945,0,0,1,3.55,5.162A4.86,4.86,0,0,1,53.69,47.6c-.222.012-.445.009-.668.009q-23.911,0-47.823,0a4.716,4.716,0,0,1-4.716-2.77,4.785,4.785,0,0,1,3.581-6.839c.094-.018.185-.053.36-.1a5.535,5.535,0,0,1-.546-3.258c0-10.095.039-20.189-.028-30.283A4.169,4.169,0,0,1,8.183,0C22.141.052,36.1.025,50.058.025c2.751,0,4.32,1.573,4.32,4.332q0,15.445-.013,30.891a23.844,23.844,0,0,1-.314,2.7M9.732,33.97H37.807c.226-.7-.026-.971-.681-1.192a3.312,3.312,0,0,1-2.089-3.854.569.569,0,0,0-.284-.689A10.349,10.349,0,0,1,30.228,17.92a9.973,9.973,0,0,1,6.65-8.34,10.131,10.131,0,0,1,10.61,1.573c.338.268.652.568,1.018.89V5.884H9.732Zm28.111,1.989H9.075c-1.005,0-1.312-.3-1.312-1.291q0-14.719,0-29.438c0-1.029.3-1.319,1.345-1.319H49.166c1.02,0,1.327.312,1.327,1.349,0,3.075-.005,6.15.009,9.226a2.883,2.883,0,0,0,.192.992,10.785,10.785,0,0,1,0,7.934,2.89,2.89,0,0,0-.2.991c-.014,3.419-.007,6.838-.01,10.258,0,.979-.326,1.3-1.318,1.3-1.619,0-3.237,0-4.856,0-.2,0-.39.017-.577.026V37.9c2.17,0,4.293,0,6.416,0a2,2,0,0,0,2.277-2.269q0-15.69,0-31.38a2,2,0,0,0-2.259-2.285H8.054A1.982,1.982,0,0,0,5.819,4.206q0,15.72,0,31.44A1.985,1.985,0,0,0,8.1,37.9H37.843Zm-1.92,3.917c0,.361.011.681,0,1a2.9,2.9,0,0,1-2.892,2.845q-3.913.032-7.827,0a2.883,2.883,0,0,1-2.87-2.918c-.006-.313,0-.626,0-.959h-.464q-8.434,0-16.868,0a2.8,2.8,0,0,0-2.937,2.132A2.87,2.87,0,0,0,5,45.668q24.15.008,48.3,0a2.9,2.9,0,0,0,3.012-2.841,2.95,2.95,0,0,0-3.067-2.983q-4.46,0-8.92,0c-.2,0-.392.017-.579.025-.313,2.749-1.157,3.845-2.946,3.856a2.877,2.877,0,0,1-1.9-.688,3.407,3.407,0,0,1-1.022-3.162ZM40.836,10.75a8.6,8.6,0,0,0-8.793,8.669,8.73,8.73,0,0,0,17.458.242,8.531,8.531,0,0,0-8.665-8.911M24.273,39.865c0,.341-.01.622,0,.9a.948.948,0,0,0,1.032,1.013q3.816.017,7.631,0a.97.97,0,0,0,1.04-1.017c.017-.293,0-.587,0-.9ZM48.538,26.849c-.582.475-1.069.926-1.611,1.3a.755.755,0,0,0-.387.929,3.382,3.382,0,0,1-2.178,3.758c-.778.27-.778.27-.587,1.136h4.763Zm-8.722,6.2c0,2.661-.009,5.242.008,7.822a.91.91,0,0,0,.941.91.949.949,0,0,0,.968-.83,1.955,1.955,0,0,0,.02-.422q0-3.512,0-7.023c0-.135-.018-.271-.03-.432-.152-.01-.269-.024-.386-.024-.481,0-.963,0-1.52,0m-2.855-3.617A1.379,1.379,0,0,0,38.3,31.093q2.486.044,4.973,0a1.385,1.385,0,0,0,1.316-1.658,10.8,10.8,0,0,1-7.631-.006" transform="translate(0 0)" fill="#fff"/>
        <path id="Trazado_601108" data-name="Trazado 601108" d="M77.784,59.318c0-.809-.012-1.617,0-2.426A2.886,2.886,0,0,1,80.681,54c1.314-.018,2.628-.021,3.942,0a2.872,2.872,0,0,1,2.857,2.808q.063,2.515,0,5.033a2.881,2.881,0,0,1-2.9,2.83q-1.94.029-3.881,0a2.894,2.894,0,0,1-2.917-2.932c-.011-.808,0-1.617,0-2.426M80.7,55.939c-.641.1-.959.419-.965.976q-.025,2.424,0,4.848a.91.91,0,0,0,.953.965q1.939.033,3.879,0a.926.926,0,0,0,.975-.952q.034-2.454,0-4.908a.866.866,0,0,0-.822-.9c-.675-.054-1.357-.013-2.076-.013v.66c0,1.293.005,2.586-.005,3.879a1.852,1.852,0,0,1-.114.706.867.867,0,0,1-1.036.541.929.929,0,0,1-.785-1c0-1.575,0-3.149,0-4.8" transform="translate(-65.165 -45.231)" fill="#fff"/>
        <path id="Trazado_601109" data-name="Trazado 601109" d="M77.783,137.173c0-.829-.014-1.658,0-2.486a2.877,2.877,0,0,1,2.811-2.848q2.031-.045,4.063,0a2.862,2.862,0,0,1,2.817,2.783q.07,2.545,0,5.094a2.871,2.871,0,0,1-2.872,2.792q-1.97.033-3.942,0a2.889,2.889,0,0,1-2.879-2.908c-.013-.808,0-1.617,0-2.426m2.911-3.408c-.678.125-.969.469-.97,1.058,0,1.576-.01,3.152,0,4.727a.938.938,0,0,0,1.03,1.015q1.878.023,3.757,0a.941.941,0,0,0,1.022-.969c.023-1.616.018-3.232,0-4.848a.874.874,0,0,0-.783-.938c-.692-.067-1.394-.017-2.122-.017,0,1.52,0,2.972,0,4.425,0,.912-.343,1.386-.99,1.377s-.951-.456-.951-1.342c0-1.474,0-2.947,0-4.487" transform="translate(-65.163 -110.438)" fill="#fff"/>
        <path id="Trazado_601110" data-name="Trazado 601110" d="M154.076,60.029c1.072,0,2.144-.005,3.216,0,.727,0,1.145.364,1.148.963s-.416.973-1.137.975q-3.216.009-6.431,0c-.735,0-1.138-.354-1.141-.964s.4-.968,1.131-.974c1.072-.008,2.144,0,3.216,0" transform="translate(-125.446 -50.291)" fill="#fff"/>
        <path id="Trazado_601111" data-name="Trazado 601111" d="M153.671,161.83c.87,0,1.739,0,2.609,0,.771,0,1.2.364,1.188.984-.011.6-.427.953-1.157.955q-2.73.008-5.46,0c-.723,0-1.13-.372-1.121-.984s.412-.949,1.151-.954c.93-.006,1.86,0,2.791,0" transform="translate(-125.446 -135.583)" fill="#fff"/>
        <path id="Trazado_601112" data-name="Trazado 601112" d="M152.613,85.9c-.627,0-1.254.014-1.88,0a.967.967,0,1,1,.023-1.931q1.88-.021,3.761,0a.941.941,0,0,1,1.01.975.955.955,0,0,1-1.032.956c-.627.016-1.254,0-1.88,0" transform="translate(-125.446 -70.341)" fill="#fff"/>
        <path id="Trazado_601113" data-name="Trazado 601113" d="M152.638,139.8c-.607,0-1.213.008-1.82,0-.687-.012-1.081-.365-1.09-.955a.943.943,0,0,1,1.06-.981q1.82-.018,3.64,0c.68.005,1.087.372,1.1.952.009.6-.41.975-1.128.985-.586.008-1.173,0-1.759,0" transform="translate(-125.446 -115.499)" fill="#fff"/>
        <path id="Trazado_601114" data-name="Trazado 601114" d="M228.111,103.431c1.092-1.353,2.157-2.669,3.215-3.99a1.065,1.065,0,0,1,1.072-.53.944.944,0,0,1,.622,1.491c-1.316,1.686-2.666,3.347-4.028,5a.881.881,0,0,1-1.26.127c-.953-.643-1.9-1.292-2.836-1.964a.961.961,0,0,1,1.1-1.578c.694.449,1.366.932,2.118,1.448" transform="translate(-188.067 -82.854)" fill="#fff"/>
      </g>
    </g>
  </g>
</svg>
