<svg xmlns="http://www.w3.org/2000/svg" xmlns:xlink="http://www.w3.org/1999/xlink" width="131" height="126" viewBox="0 0 131 126">
  <defs>
    <clipPath id="clip-path">
      <rect id="Rect치ngulo_46720" data-name="Rect치ngulo 46720" width="57.529" height="57.461" fill="none"/>
    </clipPath>
  </defs>
  <g id="Grupo_160962" data-name="Grupo 160962" transform="translate(-398 -5667)">
    <rect id="Rect치ngulo_47059" data-name="Rect치ngulo 47059" width="131" height="126" transform="translate(398 5667)" fill="#f2fbe6"/>
    <g id="Grupo_160951" data-name="Grupo 160951" transform="translate(-335 46)">
      <circle id="Elipse_1149" data-name="Elipse 1149" cx="50.5" cy="50.5" r="50.5" transform="translate(748 5634)" fill="#f2fbe6"/>
      <path id="Trazado_601063" data-name="Trazado 601063" d="M-7606.215-6039.333l.84-3.788,1.47-.866h26.879l7.756,8.334v6.386l-7.756,7.793v2.056l-4.83,5.521,4.83,4.005,4.725-4.005h1.575l1.457-1.515v10.5l-3.032-1.3-1.47-1.408h-12.285l-1.587,1.408.958,2.273,2.939.866h6.72a20.611,20.611,0,0,0,2.729,2.165c.315,0,5.027,1.083,5.027,1.083s1.141,4.33,0,4.33h-35.37l-.735-1.624v-2.707Z" transform="translate(8377.625 11702.042)" fill="#fff"/>
      <g id="Grupo_160703" data-name="Grupo 160703" transform="translate(769.784 5656.012)">
        <g id="Grupo_160703-2" data-name="Grupo 160703" clip-path="url(#clip-path)">
          <path id="Trazado_601065" data-name="Trazado 601065" d="M57.528,15.4a9.117,9.117,0,0,1-.542,1.154,3.077,3.077,0,0,1-3.39,1.281c-.638-.172-.638-.172-1.079.325.431.506.884,1,1.3,1.526A16.939,16.939,0,0,1,51.262,43.3a1.194,1.194,0,0,0-.423,1.216c.1,1.793.082,3.591.109,5.388,0,.256,0,.512,0,.751a20.483,20.483,0,0,1,2.29.276,5.536,5.536,0,0,1,4.2,5.092c.044,1.036-.334,1.439-1.38,1.44q-6.545.005-13.089,0-5.028,0-10.055,0c-1.155,0-1.538-.386-1.457-1.528a5.47,5.47,0,0,1,2.39-4.194c.143-.1.291-.2.573-.4h-.752q-4.353,0-8.707,0a2.494,2.494,0,0,1-.771-.1,1.068,1.068,0,0,1-.7-1.153,1.09,1.09,0,0,1,.94-.971,4.733,4.733,0,0,1,.617-.018H37.893v-2.03c-.9-.23-1.808-.423-2.693-.7a16.951,16.951,0,0,1-5.274-2.8,1.429,1.429,0,0,0-.8-.282c-2.135-.023-4.269-.01-6.4-.014a3.368,3.368,0,1,1-.007-6.73c2.341-.005,4.681,0,7.022,0h.708c-.165-.183-.264-.3-.373-.413q-1.965-1.968-3.931-3.934a1.155,1.155,0,0,1-.009-1.89c1.266-1.274,2.541-2.54,3.808-3.8-1.041-1.449-1.038-1.479.236-2.753,2.6-2.595,5.2-5.185,7.775-7.8a1.309,1.309,0,0,0,.343-.816c.032-1.57.016-3.141.016-4.793h-.625c-1.423,0-2.846,0-4.269,0A3.027,3.027,0,0,1,30.228,7.17c-.008-1.573,0-3.146-.006-4.719a1.9,1.9,0,0,0-.032-.2H3.438c-.929,0-1.192.266-1.192,1.208q0,22.217,0,44.435c0,.922.278,1.2,1.212,1.2H14.019a5.122,5.122,0,0,1,.617.016,1.111,1.111,0,0,1,.97,1.01,1.094,1.094,0,0,1-.748,1.128,2.208,2.208,0,0,1-.661.088q-5.421.008-10.842,0A3.14,3.14,0,0,1,0,47.957q0-22.3,0-44.6A3.121,3.121,0,0,1,3.329.008Q17.176,0,31.023,0a1.765,1.765,0,0,1,1.348.552Q36.191,4.4,40.037,8.218a1.685,1.685,0,0,1,.526,1.3c-.019,1.228-.006,2.457-.006,3.8.191-.173.3-.262.4-.361,1.126-1.124,2.249-2.253,3.379-3.373a.562.562,0,0,0,.2-.671,3.113,3.113,0,0,1,5.216-3.165C52.007,8,54.275,10.232,56.487,12.52a8.651,8.651,0,0,1,1.041,1.757ZM37.04,30.276,51.189,16.127l-5.007-5L32.038,25.267l5,5.009m3.541,9.313A9.36,9.36,0,0,0,47.11,23.582a1.521,1.521,0,0,0-.172.131c-2.052,2.05-4.108,4.1-6.143,6.161a1.079,1.079,0,0,0-.228.7c-.015,2.825-.01,5.651-.009,8.476,0,.182.015.365.023.545m9.189,2.034c7.532-6.095,6.6-16.885,1.14-21.735L48.793,22a11.738,11.738,0,0,1-1.418,17.623l2.394,2M40.183,50.68h8.523c0-1.62,0-3.188,0-4.757,0-.317-.028-.635-.05-.952a2.081,2.081,0,0,0-.053-.331,4.213,4.213,0,0,0-4.457-3.3A4.154,4.154,0,0,0,40.2,45.405c-.033,1.345-.012,2.692-.015,4.038,0,.406,0,.812,0,1.237m14.728,4.495c.011-.062.032-.1.022-.133a1.782,1.782,0,0,0-.131-.308,3.4,3.4,0,0,0-3.166-1.758q-7.188.008-14.377,0a4.311,4.311,0,0,0-.838.064,3.371,3.371,0,0,0-2.549,2.131ZM28.186,41.023q2.7,0,5.391,0c.849,0,1.378-.452,1.361-1.146-.016-.673-.532-1.1-1.355-1.1q-5.391,0-10.782,0c-.865,0-1.364.434-1.35,1.151.013.694.5,1.093,1.344,1.095q2.7.005,5.391,0m10.081-1.686V32.443c-1.095.877-1.2.872-2.381-.037l-4.11,4.128c.662,0,1.372-.022,2.08,0a3.1,3.1,0,0,1,2.922,1.836,1.655,1.655,0,0,0,1.489.963M47.389,6.878c-.266.242-.644.424-.7.677a1.255,1.255,0,0,0,.242,1c2.233,2.287,4.5,4.539,6.765,6.8a.873.873,0,0,0,1.336.078.893.893,0,0,0-.117-1.337q-3.365-3.376-6.746-6.736a4.274,4.274,0,0,0-.782-.475M31.018,33.763l3.05-3.07L31.6,28.221l-3.056,3.056,2.477,2.487m2.816,9.565a12.183,12.183,0,0,0,4.019,1.383l1.135-2.889c-.587-.138-1.2-.3-1.824-.415a.52.52,0,0,0-.428.191,3.663,3.663,0,0,1-2.9,1.73M36.471,8.09l-4-4.07c0,1.082-.011,2.18.005,3.278a.735.735,0,0,0,.778.785c1.1.022,2.2.007,3.215.007" transform="translate(0 0)"/>
          <path id="Trazado_601066" data-name="Trazado 601066" d="M85.821,119.727H96.259a4.47,4.47,0,0,1,.561.014,1.116,1.116,0,0,1,.957.961,1.074,1.074,0,0,1-.694,1.158,2.868,2.868,0,0,1-.881.109q-10.383.008-20.765,0a3.386,3.386,0,0,1-.67-.037,1.111,1.111,0,0,1-.9-1.178,1.1,1.1,0,0,1,1.071-1.023c.317-.018.636-.007.954-.007h9.934" transform="translate(-65.544 -106.245)"/>
          <path id="Trazado_601067" data-name="Trazado 601067" d="M84.875,167.592H94.31a5.091,5.091,0,0,1,.617.016,1.09,1.09,0,0,1,.951.961,1.072,1.072,0,0,1-.692,1.159,2.684,2.684,0,0,1-.827.106q-9.491.008-18.981,0a2.988,2.988,0,0,1-.614-.04,1.108,1.108,0,0,1-.9-1.18,1.074,1.074,0,0,1,1.076-1.015c1.16-.021,2.321-.01,3.482-.01h6.458" transform="translate(-65.542 -148.722)"/>
          <path id="Trazado_601068" data-name="Trazado 601068" d="M83.331,215.435h7.911a4.929,4.929,0,0,1,.616.019,1.1,1.1,0,0,1,.948.966,1.078,1.078,0,0,1-.7,1.153,2.733,2.733,0,0,1-.827.1q-7.939.009-15.878,0a3.453,3.453,0,0,1-.559-.025,1.117,1.117,0,0,1-.979-1.173,1.082,1.082,0,0,1,1.11-1.039c.747-.021,1.5-.008,2.244-.008h6.115" transform="translate(-65.545 -191.178)"/>
          <path id="Trazado_601069" data-name="Trazado 601069" d="M80.465,263.3q2.5,0,4.995,0a4.449,4.449,0,0,1,.56.02,1.1,1.1,0,0,1,.21,2.136,2.554,2.554,0,0,1-.719.086q-5.079.008-10.158,0a3.19,3.19,0,0,1-.5-.025,1.112,1.112,0,0,1-.988-1.165,1.069,1.069,0,0,1,1.1-1.044c1.833-.018,3.667-.006,5.5-.006V263.3" transform="translate(-65.545 -233.658)"/>
          <path id="Trazado_601070" data-name="Trazado 601070" d="M78.334,311.107c1.047,0,2.093-.009,3.14,0,.8.009,1.272.422,1.282,1.1.01.694-.477,1.14-1.3,1.144q-3.14.014-6.28,0c-.818,0-1.321-.454-1.316-1.134s.493-1.1,1.334-1.106c1.047-.009,2.093,0,3.14,0" transform="translate(-65.545 -276.08)"/>
          <path id="Trazado_601071" data-name="Trazado 601071" d="M164.754,439.034a1.107,1.107,0,0,1,.024-2.214,1.107,1.107,0,1,1-.024,2.214" transform="translate(-145.24 -387.643)"/>
          <path id="Trazado_601072" data-name="Trazado 601072" d="M289.583,117.954l-5-5.009L298.725,98.8l5.007,5-14.149,14.149" transform="translate(-252.543 -87.677)" fill="#9babff"/>
          <path id="Trazado_601074" data-name="Trazado 601074" d="M356.9,376.372c0-.425,0-.831,0-1.237,0-1.346-.019-2.693.015-4.038a4.154,4.154,0,0,1,3.946-4.067,4.214,4.214,0,0,1,4.457,3.3,2.083,2.083,0,0,1,.053.331c.021.317.049.634.05.951,0,1.569,0,3.138,0,4.757Zm5.37-4.668a1.109,1.109,0,1,0-1.089,1.117,1.1,1.1,0,0,0,1.089-1.117" transform="translate(-316.716 -325.692)" fill="#ade65f"/>
          <path id="Trazado_601075" data-name="Trazado 601075" d="M321.922,472.757H300.884a3.371,3.371,0,0,1,2.549-2.131,4.3,4.3,0,0,1,.838-.064q7.188-.005,14.377,0a3.4,3.4,0,0,1,3.166,1.758,1.808,1.808,0,0,1,.131.308c.01.03-.01.071-.022.133" transform="translate(-267.01 -417.582)" fill="#ade65f"/>
          <path id="Trazado_601076" data-name="Trazado 601076" d="M197.268,346.664q-2.7,0-5.391,0c-.848,0-1.331-.4-1.344-1.095-.014-.717.485-1.15,1.35-1.151q5.391,0,10.782,0c.824,0,1.339.427,1.355,1.1.017.694-.512,1.144-1.361,1.145q-2.7.005-5.391,0" transform="translate(-169.082 -305.641)" fill="#9babff"/>
          <path id="Trazado_601078" data-name="Trazado 601078" d="M256,256.215l-2.477-2.487,3.056-3.056,2.47,2.473L256,256.215" transform="translate(-224.98 -222.452)" fill="#fff"/>
          <path id="Trazado_601080" data-name="Trazado 601080" d="M387.154,400.04a1.109,1.109,0,1,1-1.106-1.1,1.1,1.1,0,0,1,1.106,1.1" transform="translate(-341.6 -354.028)"/>
        </g>
      </g>
    </g>
  </g>
</svg>
