<svg xmlns="http://www.w3.org/2000/svg" xmlns:xlink="http://www.w3.org/1999/xlink" width="131" height="126" viewBox="0 0 131 126">
  <defs>
    <clipPath id="clip-path">
      <rect id="Rect치ngulo_46717" data-name="Rect치ngulo 46717" width="51.029" height="68.568" fill="none"/>
    </clipPath>
  </defs>
  <g id="Grupo_160960" data-name="Grupo 160960" transform="translate(-398 -5309)">
    <rect id="Rect치ngulo_47057" data-name="Rect치ngulo 47057" width="131" height="126" transform="translate(398 5309)" fill="#f2fbe6"/>
    <g id="Grupo_160956" data-name="Grupo 160956" transform="translate(-335 12)">
      <circle id="Elipse_1145" data-name="Elipse 1145" cx="50.5" cy="50.5" r="50.5" transform="translate(748 5310)" fill="#f2fbe6"/>
      <g id="Grupo_160698" data-name="Grupo 160698" transform="translate(773 5326)">
        <g id="Grupo_160697" data-name="Grupo 160697" clip-path="url(#clip-path)">
          <path id="Trazado_601035" data-name="Trazado 601035" d="M26.988,0c1.478.316,2.995.509,4.426.969A18.779,18.779,0,0,1,44.33,18.746a18.056,18.056,0,0,1-2.155,7.729,60.716,60.716,0,0,1-5.444,8.964c-.175.247-.349.5-.605.859H36.9q3.582,0,7.163,0A1.4,1.4,0,0,1,45.7,37.609q2.649,14.571,5.283,29.144c.21,1.164-.33,1.813-1.5,1.813q-23.967,0-47.934,0c-1.173,0-1.713-.65-1.5-1.814q2.184-12.073,4.38-24.144c.291-1.6.585-3.2.869-4.8C5.5,36.641,5.9,36.3,7.1,36.3c2.543,0,5.087,0,7.79,0-.2-.291-.331-.5-.473-.7a73.8,73.8,0,0,1-5.948-9.9C3.613,15.931,9.6,4.9,18.358,1.42A18.96,18.96,0,0,1,23.59.107,3.25,3.25,0,0,0,24.041,0Zm-1.5,45.14c.173-.218.242-.305.312-.391,2.461-3,5-5.944,7.364-9.016a56.41,56.41,0,0,0,7.162-11.654,13.554,13.554,0,0,0,1.11-7.954A16.132,16.132,0,0,0,11.29,11.235a14.316,14.316,0,0,0-1.7,9.364,19.44,19.44,0,0,0,2.1,5.541,78.857,78.857,0,0,0,8.588,12.737c1.668,2.087,3.413,4.113,5.2,6.262M14.129,50.923c3.483-1.991,6.66-1.214,9.677.822,1.1.745,2.081,1.676,3.13,2.5a48.012,48.012,0,0,0,3.867,2.96,10.316,10.316,0,0,0,7.085,1.632,12.293,12.293,0,0,0,7.639-4.423,1.21,1.21,0,0,0,.3-1.15c-.361-1.859-.7-3.722-1.016-5.59a.857.857,0,0,0-.757-.822,13.078,13.078,0,0,1-9.127-7.193c-.46-.941-.581-.95-1.245-.156-2.189,2.617-4.377,5.236-6.6,7.825-1.274,1.485-1.851,1.484-3.146-.022-2.224-2.587-4.4-5.214-6.607-7.818-.164-.194-.376-.472-.581-.485-.859-.054-1.725-.023-2.617-.023ZM14.1,65.84H48.091c-.491-2.728-.972-5.4-1.456-8.076a4.035,4.035,0,0,0-.131-.428c-.193.17-.358.313-.521.459-4.661,4.19-10.421,4.972-15.857,2.155a30.6,30.6,0,0,1-5.648-4.255,21.258,21.258,0,0,0-3.665-2.541,5.167,5.167,0,0,0-6.255.793,1.211,1.211,0,0,0-.468,1.027c.017,3.392.009,6.784.009,10.176v.691m-9.571-8.77a5.1,5.1,0,0,0,4.626-1.346c.654-.67,1.29-1.362,1.883-2.086a1.618,1.618,0,0,0,.355-.94c.023-4.352.016-8.7.013-13.055,0-.211-.028-.422-.044-.639H7.812L4.526,57.069M2.935,65.837h8.43V57.344A6.716,6.716,0,0,1,8,59.465c-1.288.258-2.613.329-4,.492l-1.066,5.88M44.151,44.12l-.94-5.108h-5.6a10.641,10.641,0,0,0,6.543,5.108" transform="translate(0)"/>
          <path id="Trazado_601036" data-name="Trazado 601036" d="M68.588,57.352c-1.789-2.149-3.534-4.175-5.2-6.262A78.86,78.86,0,0,1,54.8,38.353a19.447,19.447,0,0,1-2.1-5.541,14.315,14.315,0,0,1,1.7-9.364,16.131,16.131,0,0,1,30.144,4.889,13.556,13.556,0,0,1-1.11,7.954,56.414,56.414,0,0,1-7.162,11.654c-2.369,3.072-4.9,6.016-7.364,9.016-.071.086-.139.174-.312.391M59.22,31.029a9.4,9.4,0,1,0,9.4-9.415,9.419,9.419,0,0,0-9.4,9.415" transform="translate(-43.102 -12.212)" fill="#9babff"/>
          <path id="Trazado_601037" data-name="Trazado 601037" d="M78.972,229.6V217.665c.893,0,1.758-.031,2.617.023.2.013.417.291.58.485,2.2,2.6,4.382,5.231,6.607,7.818,1.295,1.506,1.872,1.507,3.146.022,2.222-2.589,4.41-5.208,6.6-7.825.664-.793.785-.785,1.245.156a13.078,13.078,0,0,0,9.127,7.193.857.857,0,0,1,.757.822c.312,1.868.656,3.731,1.016,5.59a1.21,1.21,0,0,1-.3,1.15,12.292,12.292,0,0,1-7.639,4.423,10.316,10.316,0,0,1-7.085-1.632,47.953,47.953,0,0,1-3.867-2.96c-1.05-.827-2.027-1.759-3.13-2.5-3.017-2.036-6.194-2.814-9.677-.822" transform="translate(-64.843 -178.68)" fill="#fff"/>
          <path id="Trazado_601038" data-name="Trazado 601038" d="M78.751,306.5v-.691c0-3.392.008-6.784-.009-10.176a1.212,1.212,0,0,1,.468-1.027,5.167,5.167,0,0,1,6.256-.793,21.255,21.255,0,0,1,3.665,2.542,30.609,30.609,0,0,0,5.648,4.255c5.436,2.817,11.2,2.035,15.857-2.155.163-.146.328-.29.521-.459a4.091,4.091,0,0,1,.132.428c.484,2.674.965,5.349,1.456,8.076Z" transform="translate(-64.654 -240.662)" fill="#ade65f"/>
          <path id="Trazado_601039" data-name="Trazado 601039" d="M25.3,236.07,28.584,218h3.548c.016.217.044.428.044.639,0,4.352.009,8.7-.014,13.055a1.618,1.618,0,0,1-.355.94c-.593.724-1.229,1.416-1.883,2.086A5.1,5.1,0,0,1,25.3,236.07" transform="translate(-20.772 -179)" fill="#fff"/>
          <path id="Trazado_601040" data-name="Trazado 601040" d="M16.406,329.008l1.066-5.88c1.39-.163,2.715-.234,4-.492a6.717,6.717,0,0,0,3.361-2.121v8.493Z" transform="translate(-13.471 -263.171)" fill="#ade65f"/>
          <path id="Trazado_601041" data-name="Trazado 601041" d="M216.745,223.16a10.641,10.641,0,0,1-6.543-5.108h5.6l.94,5.108" transform="translate(-172.594 -179.04)" fill="#fff"/>
          <path id="Trazado_601042" data-name="Trazado 601042" d="M90.086,61.96a9.4,9.4,0,1,1,9.391,9.424,9.425,9.425,0,0,1-9.391-9.424m16.107,0A6.71,6.71,0,1,0,99.471,68.7a6.727,6.727,0,0,0,6.722-6.735" transform="translate(-73.968 -43.144)"/>
        </g>
      </g>
    </g>
  </g>
</svg>
