<svg xmlns="http://www.w3.org/2000/svg" xmlns:xlink="http://www.w3.org/1999/xlink" width="131" height="126" viewBox="0 0 131 126">
  <defs>
    <clipPath id="clip-path">
      <rect id="Rectángulo_46716" data-name="Rectángulo 46716" width="64.279" height="64.254" fill="none"/>
    </clipPath>
  </defs>
  <g id="Grupo_160959" data-name="Grupo 160959" transform="translate(-398 -5146)">
    <rect id="Rectángulo_47056" data-name="Rectángulo 47056" width="131" height="126" transform="translate(398 5146)" fill="#f2fbe6"/>
    <g id="Grupo_160954" data-name="Grupo 160954" transform="translate(-335 12)">
      <g id="Grupo_160705" data-name="Grupo 160705">
        <circle id="Elipse_1147" data-name="Elipse 1147" cx="50.5" cy="50.5" r="50.5" transform="translate(748 5147)" fill="#fff"/>
        <path id="Rectángulo_46721" data-name="Rectángulo 46721" d="M4,0h9a4,4,0,0,1,4,4V9a0,0,0,0,1,0,0H0A0,0,0,0,1,0,9V4A4,4,0,0,1,4,0Z" transform="translate(768 5220)" fill="#9babff"/>
        <path id="Rectángulo_46722" data-name="Rectángulo 46722" d="M4,0h9a4,4,0,0,1,4,4V9a0,0,0,0,1,0,0H0A0,0,0,0,1,0,9V4A4,4,0,0,1,4,0Z" transform="translate(790 5220)" fill="#9babff"/>
        <path id="Rectángulo_46723" data-name="Rectángulo 46723" d="M4,0h9a4,4,0,0,1,4,4V9a0,0,0,0,1,0,0H0A0,0,0,0,1,0,9V4A4,4,0,0,1,4,0Z" transform="translate(811 5220)" fill="#9babff"/>
        <g id="Grupo_160696" data-name="Grupo 160696" transform="translate(766 5167)">
          <g id="Grupo_160695" data-name="Grupo 160695" clip-path="url(#clip-path)">
            <path id="Trazado_601024" data-name="Trazado 601024" d="M174.829,33.385h-29.2a2.535,2.535,0,0,0-2.535,2.535v5.019h.9a2.341,2.341,0,0,1,0,4.682h-.9V55.59a2.535,2.535,0,0,0,2.535,2.535h29.2a2.535,2.535,0,0,0,2.535-2.535V35.92a2.535,2.535,0,0,0-2.535-2.535" transform="translate(-117.501 -27.414)" fill="#fff"/>
            <rect id="Rectángulo_46715" data-name="Rectángulo 46715" width="40.716" height="3.773" transform="translate(22.497 1.285)" fill="#ade65f"/>
            <path id="Trazado_601025" data-name="Trazado 601025" d="M159.478,6.482V7.3q0,10.609,0,21.219a3.25,3.25,0,0,1-3.593,3.611q-6.359,0-12.718,0h-.819c0,1.451-.013,2.869.02,4.287,0,.139.272.3.447.4a3.208,3.208,0,1,1-4.659,3.555,3.118,3.118,0,0,1,1.556-3.519.813.813,0,0,0,.5-.874c-.024-1.248-.008-2.5-.008-3.852h-.724q-6.426,0-12.852,0a3.246,3.246,0,0,1-3.56-3.577q0-2.878,0-5.757c0-.885.413-1.391,1.1-1.37.662.02,1.038.506,1.039,1.365,0,1.941,0,3.882,0,5.823,0,1.008.364,1.373,1.37,1.373q14.692,0,29.385,0c.953,0,1.37-.365,1.37-1.238q.007-11.044,0-22.089a1.489,1.489,0,0,0-.029-.182H125.2c0,1.029.006,2.069,0,3.108a1.026,1.026,0,0,1-.885,1.1.975.975,0,0,1-1.165-.673,2.133,2.133,0,0,1-.084-.722c-.009-.931,0-1.863,0-2.861-.7,0-1.343.009-1.983,0a1.094,1.094,0,0,1-1.227-1.245c-.01-1.272-.006-2.544,0-3.815,0-1,.37-1.361,1.381-1.362Q133.116,0,145,0h16.2c1.176,0,1.495.324,1.5,1.516s.006,2.41,0,3.615c-.006.909-.392,1.283-1.316,1.293-.558.006-1.115,0-1.673.008a1.6,1.6,0,0,0-.222.049M122.026,4.24H160.5V2.175H122.026Zm20.312,35.408a1.067,1.067,0,1,0-1.073,1.045,1.079,1.079,0,0,0,1.073-1.045" transform="translate(-98.414 0)"/>
            <path id="Trazado_601026" data-name="Trazado 601026" d="M4.3,41.983a14.988,14.988,0,0,1-1.886-.195A3.079,3.079,0,0,1,.031,38.837C.005,35.468-.03,32.1.044,28.731a6.381,6.381,0,0,1,6.078-6.079c.243-.01.488,0,.855,0a6.568,6.568,0,0,1-1.348-6.075A6.216,6.216,0,0,1,8.15,13.062a6.425,6.425,0,0,1,8.119.663,6.524,6.524,0,0,1,.368,8.916H17.4c3.146,0,6.292-.013,9.437.007a3.184,3.184,0,0,1,3.116,2.623,3.153,3.153,0,0,1-1.8,3.469,4.363,4.363,0,0,1-1.619.312c-2.383.033-4.768.014-7.238.014v.818q0,8.434,0,16.867a3.525,3.525,0,0,1-.02.667,1.063,1.063,0,0,1-2.107-.029,3.13,3.13,0,0,1-.013-.535q0-9.2,0-18.406c0-1.217.314-1.524,1.555-1.524q3.949,0,7.9,0c.511,0,.983-.135,1.125-.646a1.252,1.252,0,0,0-.122-1.034,1.83,1.83,0,0,0-1.17-.446c-4.06-.031-8.121-.019-12.181-.019-2.543,0-5.087-.005-7.63,0a4.279,4.279,0,0,0-4.467,4.462c-.008,2.967,0,5.935,0,8.9,0,1.355.292,1.643,1.651,1.629.132,0,.264,0,.491,0V39.04q0-3.246,0-6.492c0-.845.4-1.334,1.069-1.334s1.069.49,1.07,1.334q0,7.228,0,14.457c0,.842-.406,1.335-1.072,1.333S4.306,47.847,4.3,47c0-1.669,0-3.338,0-5.019m7.5-27.91a4.284,4.284,0,1,0,4.28,4.3,4.287,4.287,0,0,0-4.28-4.3" transform="translate(0 -9.789)"/>
            <path id="Trazado_601027" data-name="Trazado 601027" d="M20.393,250.393a6.205,6.205,0,0,1,4.176,3.285,8.142,8.142,0,0,1,.733,2.61,29.1,29.1,0,0,1,.035,3.476,1.07,1.07,0,1,1-2.131.006c-.016-1.026.005-2.052-.008-3.078a4.272,4.272,0,0,0-4.341-4.317q-3.145-.021-6.29,0a4.273,4.273,0,0,0-4.359,4.367c-.009.959,0,1.918,0,2.877-.005.832-.422,1.328-1.089,1.316-.645-.012-1.044-.492-1.049-1.286-.007-1.026-.014-2.052,0-3.078a6.41,6.41,0,0,1,4.291-5.962c.2-.073.406-.148.617-.226-2.389-3.65-2.165-7.015.6-9.362a6.439,6.439,0,0,1,8.449.157,6.513,6.513,0,0,1,.371,9.216m-4.654-8.73A4.284,4.284,0,1,0,19.986,246a4.294,4.294,0,0,0-4.247-4.334" transform="translate(-4.976 -198.681)"/>
            <path id="Trazado_601028" data-name="Trazado 601028" d="M130.745,250.38a6.444,6.444,0,0,1,8.774-9.4c2.8,2.324,3.037,5.669.65,9.41l.432.148a6.445,6.445,0,0,1,4.476,6.174c.009.959.005,1.918,0,2.877,0,.849-.392,1.339-1.056,1.349s-1.078-.484-1.083-1.32c-.006-.981.009-1.963,0-2.944a4.27,4.27,0,0,0-4.3-4.294q-3.212-.028-6.424,0a4.267,4.267,0,0,0-4.268,4.252c-.016,1,0,2.007-.006,3.011-.006.8-.4,1.277-1.043,1.294-.668.017-1.1-.479-1.093-1.308a29.288,29.288,0,0,1,.1-3.872,6.186,6.186,0,0,1,4.532-5.259c.082-.027.162-.059.312-.114m4.677-8.718a4.283,4.283,0,1,0,4.3,4.281,4.294,4.294,0,0,0-4.3-4.281" transform="translate(-103.292 -198.681)"/>
            <path id="Trazado_601029" data-name="Trazado 601029" d="M250.415,250.388c-2.394-3.528-2.2-6.909.49-9.28a6.445,6.445,0,0,1,8.452-.011,6.516,6.516,0,0,1,.49,9.281c.215.081.415.16.618.232a6.406,6.406,0,0,1,4.3,5.955c.018,1.048.013,2.1,0,3.145a1.094,1.094,0,0,1-1.04,1.229c-.647.018-1.088-.468-1.1-1.239-.01-1,.008-2.008-.006-3.011a4.269,4.269,0,0,0-4.282-4.308q-3.212-.03-6.424,0a4.269,4.269,0,0,0-4.283,4.306c-.012,1,.005,2.007-.006,3.011-.008.774-.446,1.258-1.1,1.241a1.088,1.088,0,0,1-1.039-1.227,30.008,30.008,0,0,1,.054-3.743,6.391,6.391,0,0,1,4.864-5.581m4.727-8.72a4.283,4.283,0,1,0,4.271,4.31,4.294,4.294,0,0,0-4.271-4.31" transform="translate(-201.564 -198.686)"/>
            <path id="Trazado_601030" data-name="Trazado 601030" d="M185.621,59.863h10.173a3.3,3.3,0,0,1,.667.023,1.061,1.061,0,0,1-.015,2.1,3.354,3.354,0,0,1-.667.021H175.365a3.761,3.761,0,0,1-.6-.013,1.034,1.034,0,0,1-.954-1.032,1.047,1.047,0,0,1,.97-1.084,5.111,5.111,0,0,1,.6-.011h10.24" transform="translate(-142.723 -49.153)"/>
            <path id="Trazado_601031" data-name="Trazado 601031" d="M185.676,131.721h10.173a3.328,3.328,0,0,1,.6.016,1.063,1.063,0,0,1,0,2.108,3.3,3.3,0,0,1-.6.017h-20.48a3.28,3.28,0,0,1-.6-.017,1.063,1.063,0,0,1,0-2.107,3.309,3.309,0,0,1,.6-.016h10.307" transform="translate(-142.751 -108.159)"/>
            <path id="Trazado_601032" data-name="Trazado 601032" d="M240.037,97.95c-1.673,0-3.346,0-5.019,0-.848,0-1.336-.4-1.34-1.063s.484-1.074,1.327-1.075q5.086-.005,10.173,0c.847,0,1.336.4,1.341,1.063s-.487,1.074-1.327,1.076c-1.718,0-3.435,0-5.153,0" transform="translate(-191.885 -78.673)"/>
            <path id="Trazado_601033" data-name="Trazado 601033" d="M178.028,97.941c-1,0-2.008.008-3.011,0a1.09,1.09,0,0,1-1.226-1.042c-.016-.649.467-1.09,1.241-1.093q3.045-.012,6.089,0a1.086,1.086,0,0,1,1.226,1.041c.017.648-.468,1.087-1.241,1.094-1.026.01-2.052,0-3.078,0" transform="translate(-142.709 -78.664)"/>
            <path id="Trazado_601034" data-name="Trazado 601034" d="M62.11,172.037c0,1,.009,2.008,0,3.011a1.074,1.074,0,1,1-2.134.019q-.016-3.078,0-6.156a1.074,1.074,0,1,1,2.134-.019c.014,1.048,0,2.1,0,3.145" transform="translate(-49.241 -137.709)"/>
          </g>
        </g>
      </g>
    </g>
  </g>
</svg>
