<svg xmlns="http://www.w3.org/2000/svg" xmlns:xlink="http://www.w3.org/1999/xlink" width="131" height="126" viewBox="0 0 131 126">
  <defs>
    <clipPath id="clip-path">
      <rect id="Rect치ngulo_46713" data-name="Rect치ngulo 46713" width="64.115" height="64.063" fill="none"/>
    </clipPath>
  </defs>
  <g id="Grupo_160957" data-name="Grupo 160957" transform="translate(-398 -4840.017)">
    <rect id="Rect치ngulo_47054" data-name="Rect치ngulo 47054" width="131" height="126" transform="translate(398 4840.017)" fill="#f2fbe6"/>
    <g id="Grupo_160946" data-name="Grupo 160946" transform="translate(-335 29.017)">
      <ellipse id="Elipse_1142" data-name="Elipse 1142" cx="50.5" cy="51" rx="50.5" ry="51" transform="translate(748 4823)" fill="#fff"/>
      <circle id="Elipse_5670" data-name="Elipse 5670" cx="8" cy="8" r="8" transform="translate(768 4843)" fill="#fff"/>
      <circle id="Elipse_5671" data-name="Elipse 5671" cx="8" cy="8" r="8" transform="translate(768 4887)" fill="#fff"/>
      <circle id="Elipse_5672" data-name="Elipse 5672" cx="8" cy="8" r="8" transform="translate(814 4847)" fill="#fff"/>
      <g id="Grupo_160693" data-name="Grupo 160693" transform="translate(766.7 4841.702)">
        <g id="Grupo_160693-2" data-name="Grupo 160693" clip-path="url(#clip-path)">
          <path id="Trazado_601005" data-name="Trazado 601005" d="M140.263,127.017a12.9,12.9,0,1,0-12.9,12.9,12.9,12.9,0,0,0,12.9-12.9" transform="translate(-95.327 -95.04)" fill="#ade65f"/>
          <path id="Trazado_601006" data-name="Trazado 601006" d="M158.145,137.172s-2.193-.126-2.825,1.453.831,4.107.831,4.107-3.205,1.706-4.008,4.486-1.106,5.962,0,7.056,7.726.71,10.254.017,2.595-2.082,2.75-2.335-.6-5.739-.6-5.739L160.15,143.3l1.046-3.037-.7-2.333Z" transform="translate(-126.11 -114.24)" fill="#4462fe"/>
          <path id="Trazado_601007" data-name="Trazado 601007" d="M0,7.63A17.3,17.3,0,0,1,.774,5.267,8.641,8.641,0,0,1,8.767,0a8.482,8.482,0,0,1,8.206,4.814,8.688,8.688,0,0,1-.739,9.557c-.047.067-.087.139-.117.188l4.016,3.932a18,18,0,0,1,10.906-4.455c0-.657.034-1.281-.023-1.9-.015-.161-.287-.348-.481-.437a3.893,3.893,0,0,1-2.482-3.534A3.8,3.8,0,0,1,30.209,4.44,3.987,3.987,0,1,1,33.7,11.6c-.538.231-.731.485-.671,1.041a13.35,13.35,0,0,1,.009,1.372,18.083,18.083,0,0,1,12.895,6.568l2.035-2.011a8.977,8.977,0,0,1-1.658-7.69,8.759,8.759,0,0,1,3.563-5.266,9.033,9.033,0,1,1-.307,14.542l-2.291,2.294a17.714,17.714,0,0,1,2.23,5.168,16.507,16.507,0,0,1,.452,6.012c-.06.5.023.8.528,1.012.766.321,1.5.727,2.267,1.11a4.105,4.105,0,0,1,3.449-1.72,4.009,4.009,0,1,1-4.115,4.234.882.882,0,0,0-.614-.924c-.643-.279-1.262-.613-1.862-.91-.479,1.2-.917,2.365-1.409,3.505a14.553,14.553,0,0,1-.874,1.585c-.461.782-.431,1.11.218,1.76q4.8,4.8,9.6,9.6c1.932,1.932,3.824,3.906,5.806,5.784a3.057,3.057,0,0,1-1.168,5.306c-.033.007-.056.055-.083.085H60.452a14.418,14.418,0,0,1-2-1.415q-7.578-7.505-15.1-15.067c-.712-.712-.981-.7-1.862-.238-1.139.6-2.3,1.179-3.487,1.664a26.825,26.825,0,0,1-2.729.8l.565,2.254c.209,0,.374-.011.539,0a3.981,3.981,0,1,1-.974,7.893,3.777,3.777,0,0,1-3.182-2.9,3.85,3.85,0,0,1,1.319-4.106c.14-.124.344-.333.317-.461-.172-.826-.4-1.64-.61-2.458a18.1,18.1,0,0,1-14.136-5.467l-2.982,2.972A8.957,8.957,0,0,1,18,52.422,9.033,9.033,0,0,1,.364,55.747C.23,55.311.121,54.868,0,54.429V51.676a3.912,3.912,0,0,0,.13-.406,9.044,9.044,0,0,1,10.845-7,9.56,9.56,0,0,1,3.556,1.658l3.111-3.1a17.822,17.822,0,0,1-3.6-9.8c-.5,0-.958.037-1.41-.01a.839.839,0,0,0-1,.635,3.986,3.986,0,0,1-7.519-2.546A3.989,3.989,0,0,1,7.7,28.035a4.039,4.039,0,0,1,4.02,2.512c.077.182.245.447.388.459.632.05,1.271.022,1.932.022a18.114,18.114,0,0,1,4.447-10.894l-3.971-4c-.123.086-.292.207-.464.324A9.037,9.037,0,0,1,.318,11.512c-.11-.375-.212-.753-.318-1.13V7.63M48.073,31.671c-.037-.421-.059-1.2-.179-1.954A16.023,16.023,0,1,0,40.437,45.66a3.064,3.064,0,0,1,4.322.506L59.98,61.381a4.408,4.408,0,0,0,.5.469A.977.977,0,0,0,61.927,60.6a2.92,2.92,0,0,0-.519-.618q-7.562-7.567-15.129-15.13c-1.508-1.508-1.656-2.711-.556-4.513a16.258,16.258,0,0,0,2.349-8.663M55.088,6a7.005,7.005,0,1,0,6.989,7.008A7.024,7.024,0,0,0,55.088,6M2,53.054a7.008,7.008,0,1,0,7.051-7.008A7.019,7.019,0,0,0,2,53.054M9.015,16.013A7.007,7.007,0,1,0,2,9.088a7.031,7.031,0,0,0,7.012,6.924M8.007,30.031a2,2,0,1,0,2,1.981,2.008,2.008,0,0,0-2-1.981M34.04,8.02a2,2,0,1,0-2,1.985,2.01,2.01,0,0,0,2-1.985m2,46.036a2,2,0,1,0,2,1.98,2.007,2.007,0,0,0-2-1.98m20-18.019A2,2,0,1,0,58.07,38a2,2,0,0,0-2.023-1.961" transform="translate(0 -0.001)"/>
          <path id="Trazado_601008" data-name="Trazado 601008" d="M121.728,135.783a14.035,14.035,0,1,1,7.267-26.063c.071.043.145.083.214.129a1,1,0,0,1,.4,1.445,1.068,1.068,0,0,1-1.44.276,23.275,23.275,0,0,0-3.614-1.5,11.991,11.991,0,1,0-2.108,23.628,11.42,11.42,0,0,0,10.1-6.738,11.591,11.591,0,0,0-.882-12.05c-.148-.227-.33-.432-.47-.662a.992.992,0,0,1,1.579-1.2,5.507,5.507,0,0,1,.457.594,14.023,14.023,0,0,1-9.754,21.986c-.578.07-1.161.1-1.742.147" transform="translate(-89.724 -89.695)"/>
          <path id="Trazado_601009" data-name="Trazado 601009" d="M154.911,138.319c.144.081.284.165.429.241a7.929,7.929,0,0,1,4.5,7.19c.021.583.016,1.168,0,1.751a2.925,2.925,0,0,1-1.684,2.724,13.757,13.757,0,0,1-12.638,0,2.848,2.848,0,0,1-1.683-2.717,17.971,17.971,0,0,1,.192-3.421,7.684,7.684,0,0,1,4.231-5.5c.164-.085.326-.173.49-.26-1.33-2.212-1.144-4.275.493-5.648a3.994,3.994,0,0,1,5.219.031c1.619,1.4,1.793,3.476.455,5.6m-9.09,8.06c0,.354,0,.708,0,1.062a1.062,1.062,0,0,0,.659,1.04,11.831,11.831,0,0,0,10.66.021,1.128,1.128,0,0,0,.7-1.143c-.015-.6.007-1.209-.011-1.812A6.006,6.006,0,0,0,149.8,140.1c-2.586.934-3.981,3.135-3.98,6.28m8.006-10.618a2,2,0,1,0-2.012,1.972,2.011,2.011,0,0,0,2.012-1.972" transform="translate(-119.788 -109.709)"/>
          <path id="Trazado_601010" data-name="Trazado 601010" d="M301.941,46.606c-.749-1.782-.511-3.135.7-4.074a2.984,2.984,0,0,1,3.7.03c1.18.951,1.409,2.33.653,4.035a5.1,5.1,0,0,1,2.438,3.662,2.636,2.636,0,0,1-1.807,3.1,9.159,9.159,0,0,1-6.3,0,2.628,2.628,0,0,1-1.82-3.09,5.063,5.063,0,0,1,2.436-3.663m2.466,5.417c.86-.183,1.69-.349,2.515-.538a.689.689,0,0,0,.55-.84,3.011,3.011,0,0,0-6,.013c-.027.4.084.7.507.8.8.191,1.608.373,2.427.563m.053-8.117a1,1,0,1,0,1.009.97,1,1,0,0,0-1.009-.97" transform="translate(-249.402 -34.898)"/>
          <path id="Trazado_601011" data-name="Trazado 601011" d="M26.409,286.15c-.743-1.892-.481-3.229.8-4.147a2.983,2.983,0,0,1,3.6.092c1.187.95,1.425,2.356.661,4.037a5.124,5.124,0,0,1,2.427,3.594,2.667,2.667,0,0,1-1.9,3.212,9.206,9.206,0,0,1-6.187-.036,2.638,2.638,0,0,1-1.822-3.145,5.07,5.07,0,0,1,2.419-3.607m2.5,5.412c.856-.184,1.685-.353,2.509-.545a.668.668,0,0,0,.534-.79,3.01,3.01,0,0,0-6-.01.659.659,0,0,0,.527.79c.8.189,1.609.368,2.432.555M28.9,285.44a1,1,0,1,0-.949-1.031,1.009,1.009,0,0,0,.949,1.031" transform="translate(-19.938 -234.395)"/>
          <path id="Trazado_601012" data-name="Trazado 601012" d="M26.414,22.633c-.755-1.691-.522-3.079.66-4.028a2.986,2.986,0,0,1,3.656-.064c1.246.931,1.5,2.287.75,4.111A5.075,5.075,0,0,1,33.91,26.32a2.637,2.637,0,0,1-1.823,3.092,9.162,9.162,0,0,1-6.3-.014,2.628,2.628,0,0,1-1.8-3.1,5.2,5.2,0,0,1,2.435-3.667m2.52,5.433c.835-.18,1.645-.344,2.449-.531a.692.692,0,0,0,.56-.834,3.012,3.012,0,0,0-6-.008.684.684,0,0,0,.555.833c.8.185,1.611.358,2.435.54m.017-6.119a1,1,0,1,0-1-.976,1.005,1.005,0,0,0,1,.976" transform="translate(-19.932 -14.948)"/>
        </g>
      </g>
    </g>
  </g>
</svg>
