<svg xmlns="http://www.w3.org/2000/svg" xmlns:xlink="http://www.w3.org/1999/xlink" width="90" height="90" viewBox="0 0 90 90">
  <defs>
    <clipPath id="clip-path">
      <rect id="Rectángulo_46707" data-name="Rectángulo 46707" width="49.093" height="57.032" fill="#fff"/>
    </clipPath>
  </defs>
  <g id="Grupo_160682" data-name="Grupo 160682" transform="translate(-285 -1788)">
    <g id="Grupo_160658" data-name="Grupo 160658" transform="translate(105 -2957)">
      <path id="Trazado_600839" data-name="Trazado 600839" d="M45,0A45,45,0,1,1,0,45,45,45,0,0,1,45,0Z" transform="translate(180 4745)" fill="#69489b"/>
    </g>
    <g id="Grupo_160681" data-name="Grupo 160681" transform="translate(305 1804)">
      <g id="Grupo_160680" data-name="Grupo 160680" clip-path="url(#clip-path)">
        <path id="Trazado_600992" data-name="Trazado 600992" d="M9.045,57.032V53.71H22.819V42.984h-.642c-4.233,0-8.466.015-12.7,0A9.561,9.561,0,0,1,5.035,25c.408-.218.49-.389.376-.839A12.741,12.741,0,0,1,13.721,8.945a1.028,1.028,0,0,0,.828-.91,10.2,10.2,0,0,1,19.909-.16,1.359,1.359,0,0,0,1.031,1.134A12.693,12.693,0,0,1,44,22.079c-.067.879-.28,1.747-.433,2.662a9.418,9.418,0,0,1,3.106,2.35,9.211,9.211,0,0,1,1.874,9.356A9.168,9.168,0,0,1,41.4,42.763a10.371,10.371,0,0,1-2.152.212c-4.1.019-8.206.01-12.309.01h-.7V53.671H40.014v3.362ZM19.231,27.793l3.628,3.656c0-1.877-.07-3.752.027-5.62A3.028,3.028,0,0,0,21.8,23.236c-1.734-1.618-3.378-3.333-5.012-4.962l2.506-2.5,3.579,3.59V14.547h3.347V25.54l3.652-3.665,2.4,2.408c-1.887,1.884-3.8,3.8-5.727,5.707a1.105,1.105,0,0,0-.356.873c.014,2.543.007,5.086.007,7.63v1.076c.211.012.375.03.539.03,4.4-.009,8.8.047,13.2-.053a6.007,6.007,0,0,0,5.733-5.575,6.1,6.1,0,0,0-4.4-6.488c-.762-.217-1.536-.39-2.351-.6.35-.765.706-1.493,1.021-2.24a9.347,9.347,0,0,0-6.12-12.64c-.777-.215-1.58-.335-2.345-.494a27.858,27.858,0,0,0-.269-2.79,6.832,6.832,0,0,0-13.49.92c-.04.625-.06,1.252-.09,1.892-.639.112-1.244.19-1.835.327A9.368,9.368,0,0,0,9.312,25.1c.27.585.546,1.167.842,1.8-.588.139-1.121.273-1.658.39A6.2,6.2,0,0,0,9.778,39.6c4.177.013,8.354,0,12.53,0,.176,0,.351-.02.55-.032,0-.916-.019-1.769.008-2.621a1.189,1.189,0,0,0-.39-.973c-1.786-1.758-3.552-3.536-5.323-5.309-.138-.138-.266-.284-.38-.407l2.457-2.463" transform="translate(0.001 0)" fill="#fff"/>
      </g>
    </g>
  </g>
</svg>
