<svg xmlns="http://www.w3.org/2000/svg" width="356" height="190" viewBox="0 0 356 190">
  <g id="Grupo_160909" data-name="Grupo 160909" transform="translate(6038 2870)">
    <rect id="Rectángulo_46904" data-name="Rectángulo 46904" width="356" height="190" transform="translate(-6038 -2870)" fill="#fff"/>
    <g id="Grupo_160872" data-name="Grupo 160872" transform="translate(-5953 -2848)">
      <g id="Grupo_160871" data-name="Grupo 160871" transform="translate(0 0.001)">
        <path id="Trazado_601217" data-name="Trazado 601217" d="M177.953,83.462H16.858a.734.734,0,1,1,0-1.469H177.953a.734.734,0,1,1,0,1.469" transform="translate(7.876 38.424)" fill="#c4c4c4"/>
        <path id="Trazado_601218" data-name="Trazado 601218" d="M177.953,67.163H16.858a.734.734,0,1,1,0-1.469H177.953a.734.734,0,1,1,0,1.469" transform="translate(7.556 30.786)" fill="#c4c4c4"/>
        <path id="Trazado_601219" data-name="Trazado 601219" d="M177.953,50.865H16.858a.734.734,0,0,1,0-1.469H177.953a.734.734,0,1,1,0,1.469" transform="translate(7.556 23.148)" fill="#c4c4c4"/>
        <path id="Trazado_601220" data-name="Trazado 601220" d="M177.953,34.566H16.858a.734.734,0,0,1,0-1.469H177.953a.734.734,0,1,1,0,1.469" transform="translate(7.556 15.51)" fill="#c4c4c4"/>
        <path id="Trazado_601221" data-name="Trazado 601221" d="M177.953,18.267H16.858a.734.734,0,1,1,0-1.469H177.953a.734.734,0,1,1,0,1.469" transform="translate(7.556 7.871)" fill="#c4c4c4"/>
        <path id="Trazado_601222" data-name="Trazado 601222" d="M177.953,1.969H16.858a.734.734,0,1,1,0-1.469H177.953a.734.734,0,1,1,0,1.469" transform="translate(7.556 0.234)" fill="#c4c4c4"/>
        <path id="Trazado_601223" data-name="Trazado 601223" d="M179.935,146.558H12.33a1.468,1.468,0,0,1-1.469-1.469V1.469a1.469,1.469,0,1,1,2.937,0V143.621H179.935a1.469,1.469,0,0,1,0,2.937" transform="translate(5.09 -0.001)" fill="#c4c4c4"/>
        <path id="Trazado_601224" data-name="Trazado 601224" d="M3.2,95.177h-1V88.984L.516,90.014l-.435-.7,2.244-1.388H3.2Z" transform="translate(0.038 41.202)" fill="#c4c4c4"/>
        <path id="Trazado_601226" data-name="Trazado 601226" d="M4.47,73.51c0,1.356-.866,2.322-3.091,4.544H4.645l-.12.836H.24V78.1c2.56-2.669,3.188-3.362,3.188-4.545a1.118,1.118,0,0,0-1.193-1.2,1.78,1.78,0,0,0-1.475.792l-.673-.52a2.678,2.678,0,0,1,2.2-1.1A1.994,1.994,0,0,1,4.47,73.51" transform="translate(0.042 33.518)" fill="#c4c4c4"/>
        <path id="Trazado_601228" data-name="Trazado 601228" d="M4.426,57.049A1.667,1.667,0,0,1,3.015,58.72a1.671,1.671,0,0,1,1.638,1.756A2.249,2.249,0,0,1,2.181,62.7,2.734,2.734,0,0,1,0,61.724l.6-.552a2.041,2.041,0,0,0,1.551.715,1.344,1.344,0,0,0,1.463-1.42c0-1-.562-1.3-1.442-1.3H1.627l.12-.77h.367a1.22,1.22,0,0,0,1.313-1.281,1.082,1.082,0,0,0-1.2-1.106,2.052,2.052,0,0,0-1.5.651l-.518-.6a2.926,2.926,0,0,1,2.071-.856,1.919,1.919,0,0,1,2.149,1.843" transform="translate(0 25.871)" fill="#c4c4c4"/>
        <path id="Trazado_601230" data-name="Trazado 601230" d="M5.074,44.46H4.129v1.79H3.166V44.46H.063v-.715l2.179-4.86.837.347L1.116,43.668h2.06l.088-1.952h.865v1.952h.944Z" transform="translate(0.029 18.222)" fill="#c4c4c4"/>
        <path id="Trazado_601232" data-name="Trazado 601232" d="M4.346,23.42H1.516v2.137a2.5,2.5,0,0,1,1.159-.282,2.044,2.044,0,0,1,2.063,2.3,2.365,2.365,0,0,1-2.517,2.451A2.838,2.838,0,0,1,.074,29.1l.607-.586a1.955,1.955,0,0,0,1.53.695c.909,0,1.486-.6,1.486-1.66,0-1.118-.577-1.507-1.325-1.507a2.271,2.271,0,0,0-1.031.248H.562V22.639H4.489Z" transform="translate(0.035 10.609)" fill="#c4c4c4"/>
        <path id="Trazado_601234" data-name="Trazado 601234" d="M4.921,11.147a2.371,2.371,0,0,1-2.31,2.592C.843,13.739.17,12.285.17,10.2c0-2.375,1.03-3.958,2.743-3.958a2.622,2.622,0,0,1,1.5.444l-.392.662A2.112,2.112,0,0,0,2.9,7.037c-1.053,0-1.682,1.1-1.736,2.755a2.042,2.042,0,0,1,3.752,1.356m-1.009.032c0-1.15-.489-1.551-1.172-1.551a1.869,1.869,0,0,0-1.561,1c.044,1.585.466,2.322,1.432,2.322.856,0,1.3-.7,1.3-1.768" transform="translate(0.08 2.926)" fill="#c4c4c4"/>
        <path id="Sustracción_39" data-name="Sustracción 39" d="M0,162.563V0H15.062V162.563H0Z" transform="translate(186.243 5.386) rotate(90)" fill="#e8e8e8" stroke="rgba(0,0,0,0)" stroke-miterlimit="10" stroke-width="1"/>
        <path id="Sustracción_40" data-name="Sustracción 40" d="M0,162.563V0H15.062V162.563H0Z" transform="translate(186.243 5.386) rotate(90)" fill="#e8e8e8" stroke="rgba(0,0,0,0)" stroke-miterlimit="10" stroke-width="1"/>
        <path id="Sustracción_41" data-name="Sustracción 41" d="M0,162.563V0H15.062V162.563H0Z" transform="translate(186.243 30.359) rotate(90)" fill="#e8e8e8" stroke="rgba(0,0,0,0)" stroke-miterlimit="10" stroke-width="1"/>
        <path id="Sustracción_42" data-name="Sustracción 42" d="M0,162.563V0H15.062V162.563H0Z" transform="translate(186.243 54.278) rotate(90)" fill="#e8e8e8" stroke="rgba(0,0,0,0)" stroke-miterlimit="10" stroke-width="1"/>
        <path id="Sustracción_43" data-name="Sustracción 43" d="M0,162.563V0H15.062V162.563H0Z" transform="translate(186.243 78.278) rotate(90)" fill="#e8e8e8" stroke="rgba(0,0,0,0)" stroke-miterlimit="10" stroke-width="1"/>
        <path id="Sustracción_44" data-name="Sustracción 44" d="M0,162.563V0H15.062V162.563H0Z" transform="translate(186.243 102.278) rotate(90)" fill="#e8e8e8" stroke="rgba(0,0,0,0)" stroke-miterlimit="10" stroke-width="1"/>
        <path id="Sustracción_45" data-name="Sustracción 45" d="M0,162.563V0H15.062V162.563H0Z" transform="translate(186.243 126.278) rotate(90)" fill="#e8e8e8" stroke="rgba(0,0,0,0)" stroke-miterlimit="10" stroke-width="1"/>
        <path id="Sustracción_46" data-name="Sustracción 46" d="M0,131.735V0H11.279V131.735H0Z" transform="translate(155.416 7.278) rotate(90)" fill="#ade65f" stroke="rgba(0,0,0,0)" stroke-miterlimit="10" stroke-width="1"/>
        <path id="Sustracción_49" data-name="Sustracción 49" d="M0,131.735V0H11.279V131.735H0Z" transform="translate(155.416 80.278) rotate(90)" fill="#ade65f" stroke="rgba(0,0,0,0)" stroke-miterlimit="10" stroke-width="1"/>
        <path id="Sustracción_47" data-name="Sustracción 47" d="M0,97.491V0H11.279V97.491H0Z" transform="translate(121.171 32.25) rotate(90)" fill="#4462fe" stroke="rgba(0,0,0,0)" stroke-miterlimit="10" stroke-width="1"/>
        <path id="Sustracción_50" data-name="Sustracción 50" d="M0,54.552V0H11.279V54.552H0Z" transform="translate(78.232 104.278) rotate(90)" fill="#4462fe" stroke="rgba(0,0,0,0)" stroke-miterlimit="10" stroke-width="1"/>
        <path id="Sustracción_48" data-name="Sustracción 48" d="M0,112.434V0H11.279V112.434H0Z" transform="translate(136.114 56.278) rotate(90)" fill="#69489b" stroke="rgba(0,0,0,0)" stroke-miterlimit="10" stroke-width="1"/>
        <path id="Sustracción_51" data-name="Sustracción 51" d="M0,81.6V0H11.279V81.6H0Z" transform="translate(105.281 128.278) rotate(90)" fill="#69489b" stroke="rgba(0,0,0,0)" stroke-miterlimit="10" stroke-width="1"/>
      </g>
    </g>
    <rect id="Rectángulo_47005" data-name="Rectángulo 47005" width="3" height="16" transform="translate(-5800 -2843)" fill="#636363"/>
    <rect id="Rectángulo_47006" data-name="Rectángulo 47006" width="3" height="16" transform="translate(-5833 -2818)" fill="#636363"/>
    <rect id="Rectángulo_47007" data-name="Rectángulo 47007" width="3" height="16" transform="translate(-5818 -2794)" fill="#636363"/>
    <rect id="Rectángulo_47008" data-name="Rectángulo 47008" width="3" height="15" transform="translate(-5798 -2770)" fill="#636363"/>
    <rect id="Rectángulo_47009" data-name="Rectángulo 47009" width="3" height="15" transform="translate(-5876 -2746)" fill="#636363"/>
    <rect id="Rectángulo_47018" data-name="Rectángulo 47018" width="3" height="15" transform="translate(-5849 -2722)" fill="#636363"/>
    <text id="_2003" data-name="2003" transform="translate(-5809 -2851)" fill="#c4c4c4" font-size="10" font-family="Roboto-Regular, Roboto"><tspan x="0" y="0">2003</tspan></text>
    <text id="_2000" data-name="2000" transform="translate(-5858 -2689)" fill="#c4c4c4" font-size="10" font-family="Roboto-Regular, Roboto"><tspan x="0" y="0">2000</tspan></text>
    <path id="Trazado_601298" data-name="Trazado 601298" d="M-5847.889-2677.832v14.849" transform="translate(0.389 -36)" fill="none" stroke="#636363" stroke-width="1"/>
    <path id="Trazado_601299" data-name="Trazado 601299" d="M-5847.889-2677.832v14.849" transform="translate(49.389 -172.018)" fill="none" stroke="#636363" stroke-width="1"/>
  </g>
</svg>
