<svg xmlns="http://www.w3.org/2000/svg" xmlns:xlink="http://www.w3.org/1999/xlink" width="90" height="90" viewBox="0 0 90 90">
  <defs>
    <clipPath id="clip-path">
      <rect id="Rectángulo_46894" data-name="Rectángulo 46894" width="58.272" height="65.106" fill="#fff"/>
    </clipPath>
  </defs>
  <g id="Grupo_160914" data-name="Grupo 160914" transform="translate(-493 -9850)">
    <g id="Grupo_160804" data-name="Grupo 160804" transform="translate(208 8062)">
      <g id="Grupo_160658" data-name="Grupo 160658" transform="translate(105 -2957)">
        <path id="Trazado_600839" data-name="Trazado 600839" d="M45,0A45,45,0,1,1,0,45,45,45,0,0,1,45,0Z" transform="translate(180 4745)" fill="#69489b"/>
      </g>
    </g>
    <g id="Grupo_160842" data-name="Grupo 160842" transform="translate(513 9860.352)">
      <g id="Grupo_160842-2" data-name="Grupo 160842" clip-path="url(#clip-path)">
        <path id="Trazado_601149" data-name="Trazado 601149" d="M18.835,74.36a1.405,1.405,0,0,1-.891-1.274,1.234,1.234,0,0,1,1.294-1.265c1.5-.012,3.01,0,4.515,0h.679v-.743q0-20.568,0-41.135c0-2.8-1.617-4.413-4.42-4.414q-6.55,0-13.1,0a4.012,4.012,0,0,0-4.359,4.346q0,20.6,0,41.2v.748c1.768,0,3.479,0,5.189,0a1.273,1.273,0,0,1,.965,2.132,3.409,3.409,0,0,1-.558.411H.9A1.57,1.57,0,0,1,0,72.768Q.023,51.152.012,29.535a6.439,6.439,0,0,1,4.56-6.266c.377-.119.521-.263.5-.652-.029-.507-.018-1.017,0-1.525a3.131,3.131,0,0,1,3.289-3.2h.967c0-1.2-.008-2.357,0-3.514a7.128,7.128,0,0,1,.1-1.325,2.341,2.341,0,0,1,2.254-1.888c1.208-.027,2.417-.032,3.624,0a2.442,2.442,0,0,1,2.352,2.575c.021,1.354,0,2.708,0,4.151.412,0,.785,0,1.158,0a3.1,3.1,0,0,1,3.08,2.941c.034.613.032,1.229.015,1.843-.009.333.114.467.435.573a6.418,6.418,0,0,1,4.626,6.406q0,21.521.013,43.042a1.608,1.608,0,0,1-.9,1.657Zm.515-51.4c0-.641,0-1.212,0-1.783a.66.66,0,0,0-.755-.733c-3.412,0-6.823-.013-10.235.023a.914.914,0,0,0-.687.552,13.366,13.366,0,0,0-.033,1.941Zm-7.365-5.1h3.026v-4.1H11.985Z" transform="translate(0 -9.254)" fill="#fff"/>
        <path id="Trazado_601150" data-name="Trazado 601150" d="M72.737,370.782a4.041,4.041,0,0,1-.85-1.021,1.189,1.189,0,0,1,.8-1.458,1.28,1.28,0,0,1,1.565.608,1.267,1.267,0,0,1-.379,1.632c-.117.088-.246.16-.369.239Z" transform="translate(-59.625 -305.676)" fill="#fff"/>
        <path id="Trazado_601151" data-name="Trazado 601151" d="M187.032,128.141c-.815-.59-1.561-1.156-2.333-1.682a1.526,1.526,0,0,1-.72-1.378c.01-.976-.006-1.952.006-2.927a1.234,1.234,0,0,1,1.194-1.383c.7,0,1.184.537,1.2,1.375a10.99,10.99,0,0,1-.011,1.7,1.279,1.279,0,0,0,.946,1.515,11.327,11.327,0,0,1,.409-1.251,3.708,3.708,0,0,1,2.039-1.994.575.575,0,0,0,.411-.652c-.019-1.073-.011-2.147-.005-3.22a1.244,1.244,0,0,1,1.2-1.367,1.209,1.209,0,0,1,1.154,1.346c.012,1.093-.01,2.186.017,3.278a.692.692,0,0,0,.292.525,4.137,4.137,0,0,1,2.515,3.361,1.368,1.368,0,0,0,1.024-1.586,11.783,11.783,0,0,1-.006-1.871,1.167,1.167,0,0,1,2.333-.015c.023,1.151.057,2.306-.023,3.452a1.725,1.725,0,0,1-.626,1.04c-.744.62-1.559,1.154-2.374,1.743,2.084,1.869,4.124,3.715,6.183,5.538a6.069,6.069,0,0,1,2.266,3.306,4.847,4.847,0,0,1-8.5,4.053c-.109-.136-.216-.274-.36-.457a4.061,4.061,0,0,1-7.824,0,5.07,5.07,0,0,1-3.374,2.182,4.869,4.869,0,0,1-5.5-3.858,4.776,4.776,0,0,1,1.623-4.627q3.13-2.824,6.276-5.629c.174-.156.343-.316.562-.517m5.949,7.4c0-1.325,0-2.649,0-3.974a1.662,1.662,0,0,0-1.589-1.8,1.624,1.624,0,0,0-1.656,1.68q-.045,4.061,0,8.122a1.6,1.6,0,0,0,1.676,1.651,1.658,1.658,0,0,0,1.566-1.762c.006-1.305,0-2.61,0-3.915m2.495-4.385a1.016,1.016,0,0,0-.022.231q.744,3.5,1.494,7.008a2.417,2.417,0,0,0,2.171,2.039,2.468,2.468,0,0,0,1.821-4.377q-1.646-1.491-3.3-2.97c-.707-.635-1.417-1.266-2.162-1.93m-8.205.152-.154-.061c-1.89,1.714-3.8,3.4-5.658,5.154a2.36,2.36,0,0,0-.323,2.727,2.438,2.438,0,0,0,2.476,1.3,2.372,2.372,0,0,0,2.092-1.775c.316-1.324.569-2.663.851-3.994q.356-1.677.716-3.354m5.708-5.557a1.622,1.622,0,1,0-1.627,1.639,1.658,1.658,0,0,0,1.627-1.639" transform="translate(17.043 -184.488) rotate(49)" fill="#fff"/>
        <path id="Trazado_601152" data-name="Trazado 601152" d="M145.237,50.539a4.228,4.228,0,0,1-.538-.154q-3.463-1.39-6.922-2.792a1.277,1.277,0,0,1-.919-1.3,1.162,1.162,0,0,1,.9-1.163,1.352,1.352,0,0,1,.795.025q3.647,1.438,7.275,2.926a1.242,1.242,0,0,1,.8,1.42,1.31,1.31,0,0,1-1.4,1.034" transform="translate(-113.609 -37.427)" fill="#fff"/>
        <path id="Trazado_601153" data-name="Trazado 601153" d="M138.209,5.462a1.284,1.284,0,0,1-.484-2.5c1.6-.656,3.206-1.3,4.809-1.942.743-.3,1.482-.61,2.23-.9a1.284,1.284,0,0,1,1.782.689,1.261,1.261,0,0,1-.8,1.684c-2.361.966-4.73,1.911-7.1,2.858a2.514,2.514,0,0,1-.436.108" transform="translate(-113.595 0)" fill="#fff"/>
        <path id="Trazado_601154" data-name="Trazado 601154" d="M172.413,33.5c-.761,0-1.522.01-2.283,0a1.36,1.36,0,0,1-1.482-1.316A1.328,1.328,0,0,1,170.1,30.9q2.346-.032,4.692,0a1.328,1.328,0,0,1,1.451,1.277,1.359,1.359,0,0,1-1.481,1.317c-.782.013-1.564,0-2.346,0" transform="translate(-140 -25.639)" fill="#fff"/>
        <path id="Trazado_601155" data-name="Trazado 601155" d="M41.554,153.825a7.737,7.737,0,1,1-7.746,7.763,7.782,7.782,0,0,1,7.746-7.763m.017,12.91a5.159,5.159,0,1,0-5.188-5.151,5.19,5.19,0,0,0,5.188,5.151" transform="translate(-28.065 -127.695)" fill="#fff"/>
        <path id="Trazado_601156" data-name="Trazado 601156" d="M41.49,275.036c-2.141,0-4.281.01-6.422-.006a1.235,1.235,0,0,1-1.248-1.054,1.274,1.274,0,0,1,.73-1.354,1.731,1.731,0,0,1,.674-.131q6.327-.011,12.653,0a1.312,1.312,0,0,1,1.422,1.3,1.267,1.267,0,0,1-1.388,1.254c-2.141.012-4.281,0-6.422,0v-.006" transform="translate(-28.06 -226.199)" fill="#fff"/>
        <path id="Trazado_601157" data-name="Trazado 601157" d="M145.237,50.539a4.228,4.228,0,0,1-.538-.154q-3.463-1.39-6.922-2.792a1.277,1.277,0,0,1-.919-1.3,1.162,1.162,0,0,1,.9-1.163,1.352,1.352,0,0,1,.795.025q3.647,1.438,7.275,2.926a1.242,1.242,0,0,1,.8,1.42,1.31,1.31,0,0,1-1.4,1.034" transform="translate(31.171 -117.65) rotate(68)" fill="#fff"/>
        <path id="Trazado_601158" data-name="Trazado 601158" d="M145.237,50.539a4.228,4.228,0,0,1-.538-.154q-3.463-1.39-6.922-2.792a1.277,1.277,0,0,1-.919-1.3,1.162,1.162,0,0,1,.9-1.163,1.352,1.352,0,0,1,.795.025q3.647,1.438,7.275,2.926a1.242,1.242,0,0,1,.8,1.42,1.31,1.31,0,0,1-1.4,1.034" transform="translate(41.171 -123.217) rotate(68)" fill="#fff"/>
      </g>
    </g>
  </g>
</svg>
