<svg id="Grupo_160239" data-name="Grupo 160239" xmlns="http://www.w3.org/2000/svg" xmlns:xlink="http://www.w3.org/1999/xlink" width="63.084" height="51.077" viewBox="0 0 63.084 51.077">
  <defs>
    <clipPath id="clip-path">
      <rect id="Rectángulo_46321" data-name="Rectángulo 46321" width="63.084" height="51.077" fill="#fff"/>
    </clipPath>
  </defs>
  <g id="Grupo_160238" data-name="Grupo 160238" clip-path="url(#clip-path)">
    <path id="Trazado_600338" data-name="Trazado 600338" d="M7.917,9.256c0-.111,0-.227,0-.344,0-2.31.035-4.621,0-6.931a1.906,1.906,0,0,1,2.2-1.961c1.1.14,2.206.23,3.289.445,1.384.274,2.758.617,4.118.993a34.516,34.516,0,0,1,5.4,2.022,28.2,28.2,0,0,1,8.5,5.86c.034.036.072.067.108.1.455-.431.89-.861,1.345-1.27a27.425,27.425,0,0,1,5.342-3.713,38.836,38.836,0,0,1,5.9-2.549A39.3,39.3,0,0,1,49.651.467c1.1-.206,2.224-.318,3.341-.443a1.824,1.824,0,0,1,2.155,1.884c.024,2.327.01,4.655.012,6.983v.186h.72c1.545,0,3.089-.006,4.634,0a4.98,4.98,0,0,1,.866.068,1.892,1.892,0,0,1,1.7,1.926c.005.077.006.154.006.23q0,16.5,0,33a1.957,1.957,0,0,1-.959,1.9,2.1,2.1,0,0,1-.845.253c-1.677.108-3.355.184-5.033.278-.715.04-1.429.1-2.144.15-.97.067-1.942.112-2.91.2-1.6.148-3.206.315-4.807.49-1.016.111-2.033.229-3.042.387-.933.146-1.856.349-2.784.529a39.745,39.745,0,0,0-5.646,1.495c-.81.285-1.618.582-2.418.9a2.331,2.331,0,0,1-1.788.04q-1.27-.5-2.56-.951a33,33,0,0,0-4.278-1.186c-1.317-.268-2.63-.565-3.954-.79-1.116-.19-2.245-.308-3.37-.438-1.354-.157-2.709-.306-4.066-.435-.84-.08-1.685-.112-2.527-.172-.919-.065-1.837-.145-2.756-.2-.621-.038-1.246-.032-1.867-.07-1.234-.075-2.469-.151-3.7-.255A1.794,1.794,0,0,1,.057,44.9,4.7,4.7,0,0,1,0,44.215Q0,27.729,0,11.243A2.1,2.1,0,0,1,.4,9.874a1.933,1.933,0,0,1,1.634-.751c1.015.028,2.028.1,3.043.126.912.027,1.825.027,2.738.038a.427.427,0,0,0,.1-.03m43.546-5.4c-.788.158-1.553.28-2.3.468-1.311.33-2.637.63-3.911,1.074a41.2,41.2,0,0,0-4.222,1.742,21.755,21.755,0,0,0-7.485,5.584.683.683,0,0,0-.151.4q-.01,15.654-.005,31.308c0,.08.009.16.014.242.042-.007.062,0,.073-.013.073-.058.148-.116.217-.179a35.558,35.558,0,0,1,6.19-4.464,36.45,36.45,0,0,1,6.69-3.033c1.523-.509,3.086-.9,4.636-1.329.2-.056.274-.115.274-.33q-.006-15.564,0-31.127c0-.1-.008-.2-.015-.345m-39.85.039v.843q0,14.81,0,29.62c0,.35,0,.7,0,1.049,0,.123.026.193.173.229.9.218,1.807.424,2.7.686a40.887,40.887,0,0,1,6.654,2.594,36.449,36.449,0,0,1,8.15,5.469c.117.105.244.2.413.336v-.361q0-15.488.01-30.976a1.26,1.26,0,0,0-.343-.889A21.2,21.2,0,0,0,24.278,8.33a30.859,30.859,0,0,0-6.47-2.953c-1.445-.472-2.93-.827-4.406-1.2-.573-.144-1.171-.189-1.788-.284m27.2,41.122.024.077a1.421,1.421,0,0,0,.216-.015c.324-.072.643-.165.969-.224,1.155-.21,2.308-.444,3.47-.6,1.78-.246,3.564-.47,5.352-.646,2.061-.2,4.128-.358,6.194-.5,1.344-.1,2.691-.147,4.037-.2.283-.01.327-.113.327-.363q-.008-14.744,0-29.489v-.283c-.069,0-.11-.01-.151-.01-1.254.012-2.508.033-3.762.029-.273,0-.328.063-.328.336q.016,10.575.011,21.151c0,.9,0,1.807-.015,2.711A1.814,1.814,0,0,1,53.814,38.8c-.411.131-.85.172-1.268.285-1.487.4-2.988.759-4.45,1.236a34.133,34.133,0,0,0-7.866,3.749c-.478.307-.947.629-1.42.944M3.687,12.918V42.536c0,.06.005.12,0,.179-.013.135.05.176.178.182.639.03,1.277.072,1.916.1.741.035,1.483.052,2.223.1.613.037,1.223.107,1.835.153,1.879.142,3.761.248,5.636.43,1.465.142,2.927.341,4.38.581,1.383.228,2.753.541,4.129.814.086.017.176.018.264.026a.5.5,0,0,0-.185-.221c-.316-.217-.631-.436-.953-.645a35.992,35.992,0,0,0-6.919-3.493,38.424,38.424,0,0,0-4.51-1.391c-.694-.169-1.4-.281-2.1-.448a1.928,1.928,0,0,1-1.654-2.076c0-.264-.013-.528-.013-.793q0-11.214,0-22.428c0-.6,0-.609-.6-.623-1.193-.029-2.386-.044-3.627-.065" transform="translate(0 0)" fill="#fff"/>
    <path id="Trazado_600339" data-name="Trazado 600339" d="M191.945,72.564a1.844,1.844,0,0,1-1.6,1.783,13.2,13.2,0,0,0-4.912,1.988,1.826,1.826,0,1,1-2.216-2.9,13.574,13.574,0,0,1,3.217-1.71c1.021-.371,2.068-.678,3.119-.953a1.82,1.82,0,0,1,2.088.759,1.651,1.651,0,0,1,.3,1.035" transform="translate(-145.042 -56.185)" fill="#fff"/>
    <path id="Trazado_600340" data-name="Trazado 600340" d="M192.238,123.533a1.806,1.806,0,0,1-1.4,1.668,14.6,14.6,0,0,0-4.316,1.667c-.33.179-.648.378-.982.548a1.8,1.8,0,0,1-2.434-.707,1.784,1.784,0,0,1,.591-2.406,19.709,19.709,0,0,1,6.17-2.645,1.872,1.872,0,0,1,2.067.767,1.778,1.778,0,0,1,.3,1.108" transform="translate(-145.335 -96.643)" fill="#fff"/>
    <path id="Trazado_600341" data-name="Trazado 600341" d="M86.591,76.768a2.3,2.3,0,0,1-1.273-.417A13.049,13.049,0,0,0,80.7,74.434a2.4,2.4,0,0,1-1.433-.7,1.812,1.812,0,0,1,1.511-2.986,14.54,14.54,0,0,1,3.744,1.071,16.31,16.31,0,0,1,2.9,1.549,1.83,1.83,0,0,1,.813,1.161,1.767,1.767,0,0,1-.975,2.017,4.947,4.947,0,0,1-.672.221" transform="translate(-62.65 -56.22)" fill="#fff"/>
    <path id="Trazado_600342" data-name="Trazado 600342" d="M88.189,125.864a1.809,1.809,0,0,1-2.522,1.623c-.714-.339-1.39-.757-2.1-1.112a13.3,13.3,0,0,0-3.336-1.172,1.708,1.708,0,0,1-1.343-1.272,1.734,1.734,0,0,1,.508-1.82,1.991,1.991,0,0,1,2-.409,21.064,21.064,0,0,1,5.731,2.448,1.883,1.883,0,0,1,1.055,1.714" transform="translate(-62.639 -96.648)" fill="#fff"/>
  </g>
</svg>
