<svg xmlns="http://www.w3.org/2000/svg" xmlns:xlink="http://www.w3.org/1999/xlink" width="96.525" height="60.108" viewBox="0 0 96.525 60.108">
  <defs>
    <clipPath id="clip-path">
      <path id="Trazado_165450" data-name="Trazado 165450" d="M1.189,0a1.2,1.2,0,1,0,1.19,1.2A1.2,1.2,0,0,0,1.189,0Z" fill="#ade65f"/>
    </clipPath>
    <clipPath id="clip-path-10">
      <rect id="Rect치ngulo_46878" data-name="Rect치ngulo 46878" width="62.94" height="54.006" fill="#fff"/>
    </clipPath>
  </defs>
  <g id="Grupo_160917" data-name="Grupo 160917" transform="translate(-910.955 -13224.946)">
    <g id="Grupo_160820" data-name="Grupo 160820" transform="translate(-56.045 312)">
      <path id="Uni칩n_29" data-name="Uni칩n 29" d="M4958.806,11747a24,24,0,0,1,17.48-29.094l48.514-12.1a24,24,0,0,1,11.612,46.574l-48.514,12.1a23.973,23.973,0,0,1-29.093-17.48Z" transform="translate(-3991.088 1207.859)" fill="#4462fe"/>
      <g id="Grupo_160819" data-name="Grupo 160819" transform="translate(1039.341 12954.11)">
        <g id="Group_881458" data-name="Group 881458" transform="translate(17.89 12.264) rotate(90)">
          <g id="Grupo_108454" data-name="Grupo 108454" transform="translate(0)">
            <path id="Trazado_165449" data-name="Trazado 165449" d="M1.189,0a1.2,1.2,0,1,0,1.19,1.2A1.2,1.2,0,0,0,1.189,0Z" fill="#ade65f"/>
            <g id="Grupo_108453" data-name="Grupo 108453" clip-path="url(#clip-path)">
              <g id="Group_881457" data-name="Group 881457" transform="translate(0 0)">
                <rect id="Rectangle_298911" data-name="Rectangle 298911" width="2.379" height="2.4" fill="#ade65f"/>
              </g>
            </g>
          </g>
        </g>
        <g id="Group_881458-2" data-name="Group 881458" transform="translate(10.088 12.264) rotate(90)">
          <g id="Grupo_108454-2" data-name="Grupo 108454" transform="translate(0)">
            <path id="Trazado_165449-2" data-name="Trazado 165449" d="M1.189,0a1.2,1.2,0,1,0,1.19,1.2A1.2,1.2,0,0,0,1.189,0Z" fill="#ade65f"/>
            <g id="Grupo_108453-2" data-name="Grupo 108453" clip-path="url(#clip-path)">
              <g id="Group_881457-2" data-name="Group 881457" transform="translate(0 0)">
                <rect id="Rectangle_298911-2" data-name="Rectangle 298911" width="2.379" height="2.4" fill="#ade65f"/>
              </g>
            </g>
          </g>
        </g>
        <g id="Group_881458-3" data-name="Group 881458" transform="translate(10.088 6.132) rotate(90)">
          <g id="Grupo_108454-3" data-name="Grupo 108454" transform="translate(0)">
            <path id="Trazado_165449-3" data-name="Trazado 165449" d="M1.189,0a1.2,1.2,0,1,0,1.19,1.2A1.2,1.2,0,0,0,1.189,0Z" fill="#ade65f"/>
            <g id="Grupo_108453-3" data-name="Grupo 108453" clip-path="url(#clip-path)">
              <g id="Group_881457-3" data-name="Group 881457" transform="translate(0 0)">
                <rect id="Rectangle_298911-3" data-name="Rectangle 298911" width="2.379" height="2.4" fill="#ade65f"/>
              </g>
            </g>
          </g>
        </g>
        <g id="Group_881458-4" data-name="Group 881458" transform="translate(17.89 6.132) rotate(90)">
          <g id="Grupo_108454-4" data-name="Grupo 108454" transform="translate(0)">
            <path id="Trazado_165449-4" data-name="Trazado 165449" d="M1.189,0a1.2,1.2,0,1,0,1.19,1.2A1.2,1.2,0,0,0,1.189,0Z" fill="#ade65f"/>
            <g id="Grupo_108453-4" data-name="Grupo 108453" clip-path="url(#clip-path)">
              <g id="Group_881457-4" data-name="Group 881457" transform="translate(0 0)">
                <rect id="Rectangle_298911-4" data-name="Rectangle 298911" width="2.379" height="2.4" fill="#ade65f"/>
              </g>
            </g>
          </g>
        </g>
        <g id="Group_881458-5" data-name="Group 881458" transform="translate(10.088 0) rotate(90)">
          <g id="Grupo_108454-5" data-name="Grupo 108454">
            <path id="Trazado_165449-5" data-name="Trazado 165449" d="M1.189,0a1.2,1.2,0,1,0,1.19,1.2A1.2,1.2,0,0,0,1.189,0Z" fill="#ade65f"/>
            <g id="Grupo_108453-5" data-name="Grupo 108453" clip-path="url(#clip-path)">
              <g id="Group_881457-5" data-name="Group 881457" transform="translate(0 0)">
                <rect id="Rectangle_298911-5" data-name="Rectangle 298911" width="2.379" height="2.4" fill="#ade65f"/>
              </g>
            </g>
          </g>
        </g>
        <g id="Group_881458-6" data-name="Group 881458" transform="translate(17.89 0) rotate(90)">
          <g id="Grupo_108454-6" data-name="Grupo 108454">
            <path id="Trazado_165449-6" data-name="Trazado 165449" d="M1.189,0a1.2,1.2,0,1,0,1.19,1.2A1.2,1.2,0,0,0,1.189,0Z" fill="#ade65f"/>
            <g id="Grupo_108453-6" data-name="Grupo 108453" clip-path="url(#clip-path)">
              <g id="Group_881457-6" data-name="Group 881457" transform="translate(0 0)">
                <rect id="Rectangle_298911-6" data-name="Rectangle 298911" width="2.379" height="2.4" fill="#ade65f"/>
              </g>
            </g>
          </g>
        </g>
        <g id="Group_881458-7" data-name="Group 881458" transform="translate(2.4 12.264) rotate(90)">
          <g id="Grupo_108454-7" data-name="Grupo 108454" transform="translate(0)">
            <path id="Trazado_165449-7" data-name="Trazado 165449" d="M1.189,0a1.2,1.2,0,1,0,1.19,1.2A1.2,1.2,0,0,0,1.189,0Z" fill="#ade65f"/>
            <g id="Grupo_108453-7" data-name="Grupo 108453" clip-path="url(#clip-path)">
              <g id="Group_881457-7" data-name="Group 881457" transform="translate(0 0)">
                <rect id="Rectangle_298911-7" data-name="Rectangle 298911" width="2.379" height="2.4" fill="#ade65f"/>
              </g>
            </g>
          </g>
        </g>
        <g id="Group_881458-8" data-name="Group 881458" transform="translate(2.4 6.132) rotate(90)">
          <g id="Grupo_108454-8" data-name="Grupo 108454" transform="translate(0)">
            <path id="Trazado_165449-8" data-name="Trazado 165449" d="M1.189,0a1.2,1.2,0,1,0,1.19,1.2A1.2,1.2,0,0,0,1.189,0Z" fill="#ade65f"/>
            <g id="Grupo_108453-8" data-name="Grupo 108453" clip-path="url(#clip-path)">
              <g id="Group_881457-8" data-name="Group 881457" transform="translate(0 0)">
                <rect id="Rectangle_298911-8" data-name="Rectangle 298911" width="2.379" height="2.4" fill="#ade65f"/>
              </g>
            </g>
          </g>
        </g>
        <g id="Group_881458-9" data-name="Group 881458" transform="translate(2.4 0) rotate(90)">
          <g id="Grupo_108454-9" data-name="Grupo 108454">
            <path id="Trazado_165449-9" data-name="Trazado 165449" d="M1.189,0a1.2,1.2,0,1,0,1.19,1.2A1.2,1.2,0,0,0,1.189,0Z" fill="#ade65f"/>
            <g id="Grupo_108453-9" data-name="Grupo 108453" clip-path="url(#clip-path)">
              <g id="Group_881457-9" data-name="Group 881457" transform="translate(0 0)">
                <rect id="Rectangle_298911-9" data-name="Rectangle 298911" width="2.379" height="2.4" fill="#ade65f"/>
              </g>
            </g>
          </g>
        </g>
      </g>
    </g>
    <g id="Grupo_160828" data-name="Grupo 160828" transform="translate(925.679 13231.049)">
      <g id="Grupo_160827" data-name="Grupo 160827" clip-path="url(#clip-path-10)">
        <path id="Trazado_601125" data-name="Trazado 601125" d="M0,172.332c.141-.95.235-1.909.432-2.847.434-2.072.906-4.136,1.393-6.2a.793.793,0,0,1,1.068-.652c.437.142.607.555.468,1.13-.4,1.65-.856,3.289-1.178,4.954-.276,1.426-.435,2.878-.577,4.326a2.2,2.2,0,0,0,1.932,2.363A2.16,2.16,0,0,0,6.025,173.6c.329-1.97.574-3.956.953-5.916a18.046,18.046,0,0,1,1.794-5.362,3.55,3.55,0,0,1,1.932-1.847,2.74,2.74,0,0,1,3.234,1.421c.387.726.711,1.489,1.135,2.193a13.751,13.751,0,0,0,7.215,5.7,21.607,21.607,0,0,0,9.055,1.273,23.659,23.659,0,0,0,6.426-1.286c.215-.074.433-.14.65-.207a.788.788,0,0,1,.532,1.484c-.7.265-1.419.509-2.144.709a25.2,25.2,0,0,1-7.44.95,20.358,20.358,0,0,1-12.418-4.1,13.393,13.393,0,0,1-4.079-5.218c-.091-.209-.178-.42-.281-.622-.506-.993-1.482-1.132-2.051-.192a14.045,14.045,0,0,0-1.344,2.949A37.3,37.3,0,0,0,7.7,173.361,3.871,3.871,0,0,1,4.406,177a.831.831,0,0,0-.185.085H3.376a15.349,15.349,0,0,1-2.069-1.016A3.8,3.8,0,0,1,0,173.809v-1.477" transform="translate(0 -123.074)" fill="#fff"/>
        <path id="Trazado_601126" data-name="Trazado 601126" d="M119.872,9.747a26,26,0,0,1-1.03-8.081c-.159-.015-.277-.035-.395-.035-1.776,0-3.552.006-5.327-.008-.355,0-.5.1-.511.47a24.094,24.094,0,0,0,2.722,12.964,1.791,1.791,0,0,1,.112,1.09c-.126.758-.354,1.5-.518,2.249-.138.63-.493.972-.97.886-.492-.089-.721-.506-.614-1.144a6.527,6.527,0,0,1,.266-1.338,2.225,2.225,0,0,0-.2-2.016,21.854,21.854,0,0,1-2.266-7.993A26.719,26.719,0,0,1,111.128.9c.073-.6.339-.892.951-.894q3.745-.014,7.49,0c.669,0,.961.342.944,1.05a26.468,26.468,0,0,0,.532,6.912c.119.49.28.969.427,1.47a15.823,15.823,0,0,1,17.1,11.39,17.684,17.684,0,0,1,.5,7.2,25.622,25.622,0,0,1-1.857,7.525,22.151,22.151,0,0,1-10.185,11.119.812.812,0,1,1-.767-1.406,20.777,20.777,0,0,0,10.717-14.317,21.932,21.932,0,0,0,.532-7.113,14.064,14.064,0,0,0-7.613-11.3,13.429,13.429,0,0,0-7.423-1.56,8.05,8.05,0,0,0-3.451.833,6.979,6.979,0,0,0-.988.687c-.463.372-.883.411-1.218.074a.791.791,0,0,1,.142-1.238c.75-.53,1.578-.95,2.379-1.406a3.061,3.061,0,0,1,.537-.179" transform="translate(-85.175 0)" fill="#fff"/>
        <path id="Trazado_601127" data-name="Trazado 601127" d="M37.315,103.265a15.213,15.213,0,0,1-2.186,1.319,7.227,7.227,0,0,1-5.3-.19c-1.545-.559-3.016-1.321-4.544-1.93a10.411,10.411,0,0,0-5.82-.745,7.211,7.211,0,0,0-4.879,3.368c-.41.63-.7,1.336-1.115,1.964a1.043,1.043,0,0,1-.744.455c-.246-.01-.518-.292-.7-.517a.642.642,0,0,1,.006-.542,10.473,10.473,0,0,1,4.94-5.6,10.121,10.121,0,0,1,6.482-.625,25.5,25.5,0,0,1,5.468,2.136,9.691,9.691,0,0,0,4.055,1,3.726,3.726,0,0,0,3.884-2.9,15.625,15.625,0,0,0,.452-5.74c-.076-1.351-.167-2.7-.24-4.051-.022-.409.08-.813.511-.938a1.013,1.013,0,0,1,.768.113.973.973,0,0,1,.334.669c.2,3.135.462,6.27.531,9.409a16.247,16.247,0,0,1-1.139,6.649,14.744,14.744,0,0,1-1.132,2.069.811.811,0,0,1-1.2.367.826.826,0,0,1-.117-1.249,10.375,10.375,0,0,0,1.686-4.49" transform="translate(-9.186 -68.848)" fill="#fff"/>
        <path id="Trazado_601128" data-name="Trazado 601128" d="M206.217,69.524c-.109,0-.218,0-.327-.014-2.533-.211-3.858-2.819-3.913-2.93a.93.93,0,0,1,1.665-.828c.007.015.923,1.788,2.41,1.906,1.237.1,2.708-.974,4.251-3.1,1.618-2.229,1.99-6.532.995-11.51-.9-4.519-2.542-7.661-3.626-8.324-2.272-1.388-7.983.282-9.992,1.043a.93.93,0,0,1-.659-1.739c.826-.313,8.169-3,11.621-.891,2.025,1.238,3.709,5.686,4.48,9.546.526,2.63,1.45,9.16-1.313,12.966-1.867,2.572-3.747,3.873-5.592,3.873" transform="translate(-150.764 -32.496)" fill="#fff"/>
      </g>
    </g>
  </g>
</svg>
